<?xml version="1.0" encoding="UTF-8" standalone="no"?>
<!-- Created with Inkscape (http://www.inkscape.org/) -->
<svg xmlns:dc="http://purl.org/dc/elements/1.1/" xmlns:cc="http://creativecommons.org/ns#" xmlns:rdf="http://www.w3.org/1999/02/22-rdf-syntax-ns#" xmlns:svg="http://www.w3.org/2000/svg" xmlns="http://www.w3.org/2000/svg" xmlns:xlink="http://www.w3.org/1999/xlink" xmlns:sodipodi="http://sodipodi.sourceforge.net/DTD/sodipodi-0.dtd" xmlns:inkscape="http://www.inkscape.org/namespaces/inkscape" version="1.1" id="svg4810" xml:space="preserve" width="231.37766" height="143.185" viewBox="0 0 231.37766 143.185" sodipodi:docname="BMBF_deutsch.svg" inkscape:version="0.92.2 5c3e80d, 2017-08-06" inkscape:export-filename="/home/bone/opera/bmbf-logo/official/BMBF_gefördert vom_deutsch.png" inkscape:export-xdpi="280" inkscape:export-ydpi="280"><metadata id="metadata4816"><rdf:RDF><cc:Work rdf:about=""><dc:format>image/svg+xml</dc:format><dc:type rdf:resource="http://purl.org/dc/dcmitype/StillImage"/><dc:title/></cc:Work></rdf:RDF></metadata><defs id="defs4814"/><sodipodi:namedview pagecolor="#ffffff" bordercolor="#666666" borderopacity="1" objecttolerance="10" gridtolerance="10" guidetolerance="10" inkscape:pageopacity="0" inkscape:pageshadow="2" inkscape:window-width="851" inkscape:window-height="1407" id="namedview4812" showgrid="false" inkscape:snap-bbox="true" inkscape:bbox-paths="true" inkscape:bbox-nodes="true" inkscape:snap-bbox-edge-midpoints="true" fit-margin-top="0" fit-margin-left="0" fit-margin-right="0" fit-margin-bottom="0" inkscape:zoom="1.0956113" inkscape:cx="157.55163" inkscape:cy="141.95933" inkscape:window-x="1707" inkscape:window-y="16" inkscape:window-maximized="0" inkscape:current-layer="layer2"/><g id="g4818" inkscape:groupmode="layer" inkscape:label="Bildwortmarke mit Fz" transform="matrix(1.3333333,0,0,-1.3333333,9.8514611,153.66645)"><g inkscape:groupmode="layer" id="layer2" inkscape:label="Schutzzone" style="display:none"><g id="g4798"><use height="100%" width="100%" transform="translate(-24.094898)" id="use9796" xlink:href="#path4830" y="0" x="0"/><use height="100%" width="100%" transform="translate(30.471877,22.025296)" id="use9798" xlink:href="#use4878" y="0" x="0"/><use height="100%" width="100%" transform="translate(20.118605,-62.88867)" id="use9800" xlink:href="#use4878" y="0" x="0"/><use height="100%" width="100%" transform="translate(125.34346,0.6016991)" id="use9802" xlink:href="#use4878" y="0" x="0"/></g></g><path inkscape:connector-curvature="0" id="path4824" style="fill:#231f20;fill-opacity:1;fill-rule:nonzero;stroke:none;stroke-width:0.08262855" d="m 121.2034,63.28666 c 0,0.426033 -0.1,0.727792 -0.30077,0.908253 -0.20161,0.180709 -0.43545,0.270774 -0.7073,0.270774 -0.28589,0 -0.53295,-0.09006 -0.73622,-0.270774 -0.20492,-0.180461 -0.30738,-0.48222 -0.30738,-0.908253 0,-0.426115 0.10246,-0.729445 0.30738,-0.908583 0.20327,-0.181453 0.44289,-0.270196 0.71143,-0.270196 0.28672,0 0.53048,0.08874 0.73209,0.270196 0.20079,0.179138 0.30077,0.482468 0.30077,0.908583 z m -1.31462,-3.878088 c -0.17352,0 -0.32308,0.01132 -0.45446,0.03553 -0.0744,-0.03941 -0.14708,-0.08874 -0.21483,-0.146913 -0.0702,-0.05809 -0.13221,-0.127496 -0.19005,-0.208803 -0.0578,-0.08073 -0.10494,-0.179138 -0.14212,-0.288208 -0.0372,-0.111383 -0.0545,-0.240449 -0.0545,-0.386371 0,-0.631943 0.34704,-0.946675 1.0436,-0.946675 0.59823,0 1.03781,0.117828 1.32701,0.351171 0.28507,0.233012 0.42884,0.500894 0.42884,0.803728 0,0.285647 -0.0884,0.488004 -0.27185,0.608394 -0.18013,0.118407 -0.41975,0.178147 -0.72382,0.178147 z m 2.73666,4.934494 h -0.73622 c 0.18839,-0.311509 0.28259,-0.662681 0.28259,-1.056406 0,-0.31184 -0.0504,-0.591372 -0.15287,-0.841489 -0.10328,-0.250117 -0.24623,-0.460902 -0.42884,-0.631943 -0.18591,-0.173355 -0.4024,-0.303412 -0.65194,-0.392816 -0.24788,-0.0904 -0.51643,-0.136585 -0.80397,-0.136585 -0.057,0 -0.11073,0 -0.1603,0 -0.0496,0 -0.10164,0.0059 -0.15782,0.01454 -0.10081,-0.04355 -0.20162,-0.107169 -0.30821,-0.198473 -0.10576,-0.08874 -0.15864,-0.207233 -0.15864,-0.354064 0,-0.123612 0.0454,-0.222105 0.14046,-0.302751 0.0934,-0.07494 0.24706,-0.115266 0.46024,-0.115266 h 0.74779 c 0.27846,0 0.53792,-0.02842 0.77423,-0.08717 0.23715,-0.05486 0.44372,-0.146169 0.62137,-0.274326 0.17517,-0.126835 0.31234,-0.288209 0.40984,-0.484121 0.0983,-0.197895 0.14955,-0.435122 0.14955,-0.712671 0,-0.318616 -0.0686,-0.610047 -0.20244,-0.872145 -0.13633,-0.262428 -0.3272,-0.485773 -0.57261,-0.676232 -0.24541,-0.186492 -0.5437,-0.334976 -0.89652,-0.441484 -0.35282,-0.105599 -0.74448,-0.158812 -1.17746,-0.158812 -0.63128,0 -1.1097,0.137824 -1.43773,0.412151 -0.32721,0.272096 -0.49082,0.667474 -0.49082,1.18291 0,0.220453 0.038,0.412565 0.11568,0.571377 0.0769,0.159721 0.17022,0.298537 0.27681,0.417935 0.10576,0.119398 0.21566,0.212355 0.32555,0.282424 0.1099,0.06776 0.19831,0.125926 0.26276,0.164597 v 0.02586 c -0.25367,0.188145 -0.37926,0.461563 -0.37926,0.822402 0,0.154929 0.0297,0.289531 0.0925,0.405045 0.0612,0.113615 0.13055,0.206572 0.20823,0.281433 0.0768,0.07362 0.15534,0.133363 0.23301,0.17856 0.0785,0.04421 0.13716,0.07585 0.17682,0.09098 v 0.0252 c -0.30159,0.138816 -0.54452,0.358278 -0.72961,0.655823 -0.18343,0.29862 -0.27515,0.682016 -0.27515,1.149115 0,0.32787 0.0529,0.616492 0.15947,0.864956 0.10577,0.250199 0.24872,0.457679 0.42885,0.620706 0.18178,0.163356 0.39165,0.285977 0.63293,0.368275 0.24128,0.08106 0.50156,0.123282 0.77753,0.123282 0.28177,0 0.54287,-0.04966 0.78663,-0.147162 h 1.79386 z m -6.702,-5.119086 v 3.793146 c 0,0.498663 -0.0851,0.856941 -0.25202,1.074502 -0.16774,0.216569 -0.42306,0.32473 -0.76679,0.32473 -0.29581,0 -0.54122,-0.07329 -0.73788,-0.221445 C 113.9701,64.048 113.81558,63.904722 113.6999,63.765658 V 59.22398 h -0.99485 v 5.892737 h 0.90892 v -0.66392 h 0.0256 c 0.0231,0.04999 0.0769,0.121051 0.1603,0.214669 0.0802,0.09519 0.18757,0.185253 0.31895,0.270774 0.13138,0.08585 0.28507,0.161704 0.46602,0.226898 0.18013,0.06619 0.38505,0.09874 0.61393,0.09874 0.26276,0 0.49991,-0.03966 0.71226,-0.115845 0.21236,-0.07874 0.39249,-0.204341 0.54122,-0.375712 0.14542,-0.172033 0.26028,-0.395048 0.34291,-0.669705 0.081,-0.273087 0.12146,-0.611699 0.12146,-1.013522 V 59.22398 Z m -4.73875,0 h -0.90809 v 0.662268 h -0.0264 c -0.024,-0.04842 -0.0777,-0.121051 -0.15865,-0.213678 -0.0818,-0.09618 -0.18591,-0.184923 -0.31399,-0.270443 -0.12724,-0.08618 -0.27928,-0.163026 -0.46106,-0.227559 -0.17931,-0.06619 -0.38009,-0.09907 -0.60071,-0.09907 -0.26276,0 -0.49577,0.03875 -0.70648,0.117829 -0.20739,0.07808 -0.38835,0.202357 -0.53378,0.37439 -0.14625,0.172693 -0.25945,0.394386 -0.33795,0.667142 -0.0777,0.274327 -0.11568,0.611617 -0.11568,1.012861 v 3.868999 h 0.9932 v -3.794798 c 0,-0.492219 0.081,-0.840167 0.23962,-1.048309 0.1603,-0.208224 0.40901,-0.313079 0.74283,-0.313079 0.28755,0 0.52965,0.07098 0.72465,0.214586 0.19749,0.14303 0.35283,0.281846 0.46685,0.422232 v 4.519368 h 0.99568 z m -6.60698,0 v 3.793146 c 0,0.498663 -0.0835,0.856941 -0.25036,1.074502 -0.16939,0.216569 -0.42554,0.32473 -0.76845,0.32473 -0.29498,0 -0.53874,-0.07329 -0.73705,-0.221445 -0.195,-0.146913 -0.35034,-0.290191 -0.46602,-0.429255 V 59.22398 h -0.99402 v 8.67922 l 0.99402,0.110392 v -3.499154 h 0.0248 c 0.0339,0.04875 0.0843,0.115267 0.15451,0.196904 0.0686,0.08131 0.16443,0.163274 0.28672,0.244663 0.12312,0.08164 0.2735,0.153606 0.44868,0.216239 0.17765,0.06164 0.38339,0.09163 0.62136,0.09163 0.5156,0 0.92379,-0.168149 1.22621,-0.503787 0.30325,-0.336959 0.45528,-0.892801 0.45528,-1.670997 v -3.86511 z m -4.676776,4.749819 c -0.02396,0.02421 -0.06362,0.06263 -0.116506,0.112045 -0.05288,0.04776 -0.120638,0.09742 -0.203267,0.146169 -0.08263,0.04842 -0.179304,0.0923 -0.29581,0.129149 -0.112375,0.03644 -0.243754,0.0552 -0.390833,0.0552 -0.214008,0 -0.412316,-0.03908 -0.594925,-0.116259 -0.185088,-0.07775 -0.345388,-0.203349 -0.480072,-0.37472 -0.135511,-0.173024 -0.241276,-0.394386 -0.319773,-0.669374 -0.07684,-0.27474 -0.114853,-0.607485 -0.114853,-1.000632 0,-0.43413 0.03388,-0.798852 0.104112,-1.091605 0.06858,-0.295315 0.165257,-0.530971 0.287547,-0.708458 0.12229,-0.174263 0.271848,-0.300189 0.447847,-0.378604 0.176825,-0.07651 0.369349,-0.116175 0.582531,-0.116175 0.304073,0 0.534607,0.05164 0.69408,0.158151 0.160299,0.106508 0.2735,0.193681 0.337951,0.259205 l 0.404877,-0.689122 c -0.0397,-0.04842 -0.1008,-0.10816 -0.17765,-0.177568 -0.07684,-0.06875 -0.176824,-0.136503 -0.301593,-0.201036 -0.121464,-0.06618 -0.271848,-0.12105 -0.447021,-0.166248 -0.175998,-0.0452 -0.379265,-0.06842 -0.607319,-0.06842 -0.328862,0 -0.634588,0.05321 -0.920482,0.160382 -0.287548,0.105847 -0.537086,0.280855 -0.750268,0.527088 -0.212355,0.245985 -0.379265,0.564849 -0.501555,0.956012 -0.123117,0.393147 -0.185914,0.881151 -0.185914,1.460542 0,0.567411 0.07354,1.045169 0.220618,1.438233 0.148731,0.392816 0.34043,0.710771 0.577574,0.952872 0.23797,0.240119 0.502381,0.416365 0.790755,0.526757 0.293331,0.110392 0.585836,0.166497 0.878341,0.166497 0.222271,0 0.416448,-0.02124 0.584184,-0.06197 0.167736,-0.04065 0.309857,-0.0923 0.429669,-0.153276 0.120637,-0.06164 0.216491,-0.127165 0.294161,-0.195912 0.0785,-0.06941 0.14129,-0.129809 0.19087,-0.178808 z m -5.032905,-0.04842 c -0.0661,0.07263 -0.183435,0.174016 -0.356955,0.301181 -0.171041,0.127496 -0.397444,0.189798 -0.674249,0.189798 -0.263585,0 -0.463546,-0.06106 -0.604015,-0.184345 -0.137163,-0.122042 -0.208224,-0.269534 -0.208224,-0.441567 0,-0.221031 0.06445,-0.403723 0.191698,-0.546422 0.127248,-0.1446 0.319773,-0.296306 0.582532,-0.459911 l 0.367697,-0.222766 c 0.400748,-0.236566 0.716389,-0.493127 0.947749,-0.765884 0.227229,-0.27441 0.342909,-0.627812 0.342909,-1.061942 0,-0.465447 -0.162779,-0.859172 -0.486683,-1.179688 -0.322251,-0.317955 -0.78745,-0.478337 -1.393117,-0.478337 -0.235491,0 -0.446194,0.02487 -0.624672,0.0742 -0.180956,0.05007 -0.337124,0.105599 -0.472635,0.171702 -0.135511,0.06552 -0.248712,0.138155 -0.338777,0.21566 -0.08924,0.07908 -0.163605,0.147492 -0.220618,0.214587 l 0.479245,0.784971 c 0.04793,-0.049 0.108244,-0.106508 0.177652,-0.17005 0.06858,-0.06718 0.153689,-0.13171 0.252017,-0.19145 0.0975,-0.06131 0.20905,-0.111962 0.330514,-0.153937 0.12229,-0.04198 0.267716,-0.06065 0.428842,-0.06065 0.29581,0 0.521386,0.06387 0.676728,0.196242 0.156994,0.129727 0.232186,0.287878 0.232186,0.478337 0,0.138155 -0.01818,0.259206 -0.05454,0.362492 -0.03718,0.100641 -0.09172,0.193598 -0.165257,0.274987 -0.07189,0.08164 -0.164431,0.160713 -0.270195,0.233343 -0.105765,0.0742 -0.228881,0.154929 -0.36935,0.245325 l -0.367697,0.233012 c -0.367697,0.238879 -0.655244,0.487343 -0.865121,0.749771 -0.209876,0.262759 -0.312336,0.597157 -0.312336,1.007077 0,0.221362 0.04214,0.423472 0.128901,0.608725 0.08511,0.18203 0.205745,0.342412 0.361087,0.478006 0.156168,0.135593 0.337124,0.241441 0.546174,0.320186 0.209051,0.07618 0.432148,0.115845 0.669292,0.115845 0.228881,0 0.425537,-0.02289 0.589141,-0.06809 0.164431,-0.04388 0.3049,-0.102294 0.423885,-0.171702 0.118158,-0.07007 0.216486,-0.139477 0.29581,-0.209464 0.07684,-0.06776 0.139642,-0.129479 0.189219,-0.177568 z m -3.47453,0.319194 c -0.02562,0.01653 -0.07767,0.03586 -0.1603,0.06197 -0.08263,0.02363 -0.193351,0.03652 -0.332167,0.03652 -0.309857,0 -0.554437,-0.08494 -0.72961,-0.251438 -0.176825,-0.16815 -0.300768,-0.350511 -0.374307,-0.546423 V 59.22398 h -0.994848 v 5.892737 h 0.908088 v -0.799183 h 0.02479 c 0.04131,0.114936 0.09254,0.227559 0.159473,0.338281 0.06528,0.110061 0.147905,0.209133 0.24458,0.293745 0.09998,0.08651 0.215661,0.154267 0.350345,0.203927 0.135511,0.04842 0.296637,0.07395 0.486682,0.07395 0.137164,0 0.251191,-0.01322 0.337951,-0.03809 0.08511,-0.02421 0.15121,-0.04421 0.200788,-0.06007 z m -4.875911,-2.075381 c 0,0.785962 -0.113201,1.356595 -0.342908,1.712642 -0.228882,0.356624 -0.548654,0.534524 -0.956839,0.534524 -0.409011,0 -0.727131,-0.1779 -0.952707,-0.534524 -0.22475,-0.356047 -0.337125,-0.92668 -0.337125,-1.712642 0,-0.785963 0.114028,-1.350729 0.343735,-1.692894 0.228881,-0.343735 0.54948,-0.515767 0.958491,-0.515767 0.409012,0 0.725479,0.172032 0.950229,0.515767 0.225575,0.342165 0.337124,0.906931 0.337124,1.692894 z m -3.620783,0 c 0,0.540638 0.06362,1.007076 0.190872,1.400223 0.125595,0.393064 0.298289,0.714241 0.514776,0.962457 0.217313,0.251439 0.466025,0.434792 0.750267,0.552868 0.280937,0.11882 0.581705,0.179139 0.901478,0.179139 0.327209,0 0.630455,-0.06032 0.908914,-0.179139 0.277631,-0.118076 0.518907,-0.301429 0.723826,-0.552868 0.204918,-0.248216 0.36687,-0.569393 0.485029,-0.962457 0.118985,-0.393147 0.177652,-0.859585 0.177652,-1.400223 0,-0.548654 -0.06032,-1.019967 -0.183436,-1.412122 -0.123116,-0.390503 -0.292505,-0.71168 -0.509818,-0.962788 -0.216487,-0.250117 -0.46933,-0.431569 -0.755225,-0.547084 -0.285895,-0.112953 -0.589968,-0.171702 -0.908088,-0.171702 -0.328035,0 -0.630455,0.05875 -0.908914,0.171702 -0.278458,0.115515 -0.518907,0.296967 -0.724652,0.547084 -0.203266,0.251108 -0.366044,0.569063 -0.48503,0.957004 -0.118158,0.387362 -0.177651,0.861155 -0.177651,1.417906 z m -4.91078,-2.945212 v 8.470996 h 4.161339 l -0.07271,-0.846943 h -3.02123 v -3.132117 h 2.787391 V 62.868642 H 79.053421 V 59.22398 Z m -6.433789,0.736551 c 0.154928,0 0.295066,0.01867 0.417687,0.06065 0.122951,0.04198 0.22946,0.09263 0.318864,0.153937 0.09006,0.05974 0.165918,0.124273 0.22822,0.19145 0.0604,0.06354 0.108491,0.121051 0.140386,0.17005 v 3.634417 c -0.08998,0.05676 -0.193929,0.105186 -0.31308,0.1465 -0.118737,0.04198 -0.268543,0.06131 -0.44826,0.06131 -0.228881,0 -0.44355,-0.03743 -0.644585,-0.116175 -0.200126,-0.07775 -0.374142,-0.206902 -0.522295,-0.386041 -0.146831,-0.180378 -0.262676,-0.413804 -0.349188,-0.70036 -0.08552,-0.285646 -0.128818,-0.639131 -0.128818,-1.056406 0,-0.409011 0.03454,-0.750432 0.104608,-1.026411 0.06974,-0.273418 0.165257,-0.493871 0.288208,-0.660698 0.122951,-0.16724 0.261767,-0.2873 0.417357,-0.3615 0.155259,-0.07362 0.318863,-0.110722 0.490896,-0.110722 z m -2.332604,2.122149 c 0,0.597156 0.07775,1.097472 0.234004,1.498634 0.155259,0.401822 0.355716,0.72523 0.601288,0.969315 0.244994,0.245242 0.523865,0.420497 0.834383,0.521882 0.311179,0.103616 0.622276,0.154929 0.933785,0.154929 0.187484,0 0.351833,-0.01553 0.490566,-0.04388 0.139477,-0.02809 0.253752,-0.06362 0.343735,-0.105269 V 67.9032 l 0.994765,0.110392 V 59.22398 h -0.909162 v 0.625167 h -0.02454 c -0.02388,-0.04908 -0.06842,-0.116175 -0.134602,-0.203348 -0.06519,-0.08552 -0.155259,-0.171042 -0.270195,-0.257223 -0.114275,-0.08552 -0.257884,-0.158151 -0.429916,-0.221114 -0.172033,-0.06131 -0.372159,-0.09197 -0.601288,-0.09197 -0.277963,0 -0.541961,0.05553 -0.792408,0.166827 -0.249208,0.111384 -0.468008,0.286639 -0.656484,0.527088 -0.188228,0.24111 -0.33762,0.55262 -0.447351,0.932793 -0.111053,0.380918 -0.166579,0.840829 -0.166579,1.380476 z m -2.208992,-2.8587 v 3.793146 c 0,0.498663 -0.08461,0.856941 -0.252099,1.074502 -0.16848,0.216569 -0.423802,0.32473 -0.768198,0.32473 -0.294075,0 -0.539316,-0.07329 -0.73589,-0.221445 C 65.058541,64.048 64.902621,63.904722 64.788346,63.765658 V 59.22398 h -0.994435 v 5.892737 h 0.907592 v -0.66392 h 0.02454 c 0.02421,0.04999 0.07751,0.121051 0.159473,0.214669 0.08131,0.09519 0.188806,0.185253 0.319194,0.270774 0.131049,0.08585 0.286308,0.161704 0.467347,0.226898 0.179139,0.06619 0.383479,0.09874 0.612938,0.09874 0.262429,0 0.499986,-0.03966 0.712672,-0.115845 0.213016,-0.07874 0.392155,-0.204341 0.539729,-0.375712 0.147823,-0.172033 0.261768,-0.395048 0.343735,-0.669705 0.0823,-0.273087 0.123612,-0.611699 0.123612,-1.013522 V 59.22398 Z m -4.740565,0 h -0.908583 v 0.662268 h -0.02355 c -0.02512,-0.04842 -0.07841,-0.121051 -0.159391,-0.213678 -0.08263,-0.09618 -0.186906,-0.184923 -0.31341,-0.270443 -0.127248,-0.08618 -0.280854,-0.163026 -0.460654,-0.227559 -0.180048,-0.06619 -0.380174,-0.09907 -0.601288,-0.09907 -0.262098,0 -0.497672,0.03875 -0.706557,0.117829 -0.208141,0.07808 -0.386949,0.202357 -0.532871,0.37439 -0.148153,0.172693 -0.260776,0.394386 -0.338281,0.667142 -0.07874,0.274327 -0.116507,0.611617 -0.116507,1.012861 v 3.868999 h 0.994104 v -3.794798 c 0,-0.492219 0.07941,-0.840167 0.238879,-1.048309 0.160052,-0.208224 0.407029,-0.313079 0.743657,-0.313079 0.285647,0 0.528079,0.07098 0.723661,0.214586 0.197813,0.14303 0.35208,0.281846 0.466686,0.422232 v 4.519368 h 0.994104 z m 42.210135,16.443659 c 0,0.425455 -0.10164,0.728867 -0.3016,0.908336 -0.19913,0.179717 -0.43545,0.269452 -0.70564,0.269452 -0.28673,0 -0.53213,-0.08974 -0.73622,-0.269452 -0.20327,-0.179469 -0.30738,-0.482881 -0.30738,-0.908336 0,-0.425702 0.10411,-0.728784 0.30738,-0.908583 0.20409,-0.180378 0.44206,-0.269783 0.71225,-0.269783 0.2859,0 0.53048,0.0894 0.72961,0.269783 0.19996,0.179799 0.3016,0.482881 0.3016,0.908583 z m -1.3138,-3.879327 c -0.17104,0 -0.32307,0.01198 -0.45445,0.03685 -0.0727,-0.04198 -0.14543,-0.0894 -0.21401,-0.147244 -0.0702,-0.05875 -0.13386,-0.128074 -0.1917,-0.209133 -0.057,-0.08131 -0.10246,-0.177486 -0.14047,-0.288208 -0.0372,-0.110392 -0.0545,-0.240119 -0.0545,-0.386702 0,-0.630704 0.34786,-0.945684 1.04277,-0.945684 0.59906,0 1.04112,0.116506 1.32619,0.348858 0.28672,0.233756 0.42884,0.502299 0.42884,0.80505 0,0.287547 -0.0884,0.488665 -0.26937,0.607402 -0.18013,0.11882 -0.42058,0.178809 -0.72465,0.178809 z m 2.73749,4.935155 h -0.73622 c 0.18839,-0.31151 0.28259,-0.663012 0.28259,-1.055828 0,-0.311427 -0.0504,-0.591951 -0.15287,-0.840745 -0.10163,-0.2502 -0.2454,-0.460324 -0.42966,-0.632687 -0.18509,-0.172281 -0.40241,-0.303329 -0.65112,-0.393395 -0.24954,-0.08973 -0.5189,-0.134601 -0.80315,-0.134601 -0.0578,0 -0.11237,0 -0.16195,0 -0.0479,0 -0.10163,0.0048 -0.15782,0.01322 -0.0983,-0.04231 -0.20079,-0.106839 -0.30903,-0.197234 -0.10494,-0.09031 -0.15782,-0.209133 -0.15782,-0.356295 0,-0.122703 0.0471,-0.222436 0.14047,-0.301511 0.095,-0.07585 0.24954,-0.116176 0.46107,-0.116176 h 0.74861 c 0.27763,0 0.53461,-0.02875 0.77423,-0.08486 0.23632,-0.05875 0.44454,-0.149806 0.61806,-0.27598 0.17683,-0.127165 0.31482,-0.288869 0.41314,-0.485112 0.0975,-0.197895 0.14708,-0.4338 0.14708,-0.713002 0,-0.318863 -0.0686,-0.610046 -0.20326,-0.872144 -0.13551,-0.261437 -0.32473,-0.486682 -0.57097,-0.674249 -0.24623,-0.188806 -0.54369,-0.336959 -0.89569,-0.442806 -0.35365,-0.1056 -0.74531,-0.160134 -1.17911,-0.160134 -0.63046,0 -1.1097,0.137163 -1.43608,0.412151 -0.32804,0.27474 -0.49082,0.669456 -0.49082,1.185224 0,0.219792 0.0388,0.411242 0.11568,0.570963 0.0785,0.159473 0.17022,0.298619 0.27763,0.417026 0.10577,0.119151 0.21401,0.212686 0.32391,0.282425 0.11072,0.06974 0.19996,0.125264 0.26524,0.164596 v 0.02619 c -0.25533,0.187484 -0.38092,0.462472 -0.38092,0.822402 0,0.15592 0.0297,0.290191 0.0917,0.405045 0.0611,0.115267 0.12972,0.207563 0.20739,0.282424 0.0785,0.07362 0.157,0.133363 0.23467,0.177569 0.0777,0.04487 0.13716,0.07618 0.17848,0.09263 v 0.02421 c -0.30325,0.139064 -0.54783,0.358608 -0.73044,0.657145 -0.18426,0.298537 -0.27846,0.681355 -0.27846,1.14771 0,0.327622 0.0554,0.615913 0.16113,0.865369 0.10659,0.249538 0.24954,0.45644 0.42884,0.620706 0.18178,0.163274 0.39083,0.285977 0.63376,0.368275 0.24045,0.08098 0.50073,0.12229 0.78001,0.12229 0.27764,0 0.53957,-0.04933 0.78415,-0.147822 h 1.79469 z m -6.70283,-5.119748 v 3.793807 c 0,0.498994 -0.08346,0.857602 -0.25367,1.074172 -0.165257,0.21723 -0.420579,0.325308 -0.764314,0.325308 -0.29581,0 -0.542043,-0.07354 -0.73622,-0.221031 -0.197482,-0.146914 -0.354476,-0.290192 -0.467678,-0.430247 v -4.542009 h -0.994847 v 5.892738 h 0.908087 v -0.663259 h 0.02562 c 0.02314,0.04999 0.07685,0.121711 0.158647,0.215908 0.08098,0.09461 0.188393,0.183353 0.320599,0.269865 0.1289,0.08552 0.285068,0.162365 0.466025,0.227228 0.179304,0.06585 0.385049,0.09808 0.613104,0.09808 0.262759,0 0.499076,-0.039 0.713084,-0.116836 0.212355,-0.07808 0.391659,-0.202027 0.538738,-0.373729 0.148732,-0.172033 0.263585,-0.395708 0.344555,-0.669126 0.081,-0.274658 0.12229,-0.612939 0.12229,-1.013192 v -3.867677 z m -4.738747,0 h -0.908914 v 0.662351 h -0.02479 c -0.02562,-0.04817 -0.0785,-0.120142 -0.159473,-0.214669 -0.0818,-0.09296 -0.18674,-0.183683 -0.313162,-0.270196 -0.126422,-0.08486 -0.280937,-0.162034 -0.461067,-0.226567 -0.179304,-0.06618 -0.379265,-0.09775 -0.601536,-0.09775 -0.261106,0 -0.494945,0.03801 -0.703995,0.116837 -0.209877,0.07676 -0.388355,0.201366 -0.534607,0.37406 -0.148731,0.172032 -0.259454,0.394386 -0.337951,0.669126 -0.07767,0.274326 -0.116506,0.610955 -0.116506,1.012199 v 3.867347 h 0.994848 v -3.793146 c 0,-0.491557 0.0785,-0.841489 0.238796,-1.049961 0.159473,-0.208224 0.405706,-0.31308 0.742831,-0.31308 0.287547,0 0.526344,0.07197 0.724652,0.214669 0.195004,0.142287 0.352824,0.283995 0.465199,0.42405 v 4.517468 h 0.995674 z M 86.71507,72.34027 c 0.156168,0 0.294984,0.02165 0.417274,0.06131 0.123117,0.04032 0.229708,0.09296 0.319773,0.153358 0.09006,0.06197 0.165257,0.124521 0.227228,0.191698 0.06197,0.06486 0.108244,0.121382 0.141295,0.171042 v 3.634416 c -0.08924,0.05611 -0.195003,0.106508 -0.313162,0.147162 -0.118159,0.04098 -0.268543,0.06065 -0.447847,0.06065 -0.230533,0 -0.445368,-0.03809 -0.644502,-0.116176 -0.201614,-0.07875 -0.375134,-0.207232 -0.522213,-0.387032 -0.147079,-0.179386 -0.264411,-0.413143 -0.349519,-0.69912 -0.08759,-0.287217 -0.129726,-0.638719 -0.129726,-1.056075 0,-0.408929 0.0347,-0.751672 0.104112,-1.025751 0.06941,-0.273666 0.166083,-0.49478 0.289199,-0.662599 0.123117,-0.167901 0.261933,-0.288621 0.416448,-0.362161 0.156168,-0.07362 0.319773,-0.110722 0.49164,-0.110722 z m -2.332604,2.124463 c 0,0.596495 0.07767,1.096729 0.233013,1.497973 0.155342,0.4005 0.356129,0.72457 0.602362,0.969233 0.243754,0.245985 0.523039,0.420248 0.833722,0.522295 0.312336,0.101633 0.623019,0.153276 0.933703,0.153276 0.189219,0 0.351997,-0.01421 0.490813,-0.04288 0.138816,-0.02875 0.255322,-0.06362 0.344561,-0.104607 V 80.2836 l 0.994022,0.111053 v -8.790934 h -0.908914 v 0.626821 h -0.02396 c -0.02396,-0.05065 -0.06858,-0.116837 -0.134684,-0.20401 -0.06693,-0.08519 -0.156168,-0.171041 -0.271022,-0.257884 -0.114027,-0.08453 -0.257801,-0.159143 -0.429668,-0.220784 -0.171041,-0.06131 -0.371829,-0.09097 -0.601536,-0.09097 -0.278458,0 -0.542043,0.05354 -0.791582,0.164596 -0.249538,0.111632 -0.46933,0.286556 -0.656897,0.528327 -0.187566,0.241441 -0.33795,0.551959 -0.447846,0.933125 -0.110723,0.381248 -0.166084,0.841158 -0.166084,1.381797 z m -1.54598,-1.485744 c 0,-0.245242 0.03388,-0.418266 0.103286,-0.516429 0.06858,-0.09676 0.190046,-0.145839 0.362739,-0.145839 0.08924,0 0.165257,0.0074 0.227229,0.02355 0.06032,0.01743 0.108243,0.03322 0.139642,0.04941 l 0.08759,-0.737212 c -0.04958,-0.02388 -0.139642,-0.05685 -0.270195,-0.09783 -0.130553,-0.04131 -0.308205,-0.06164 -0.528823,-0.06164 -0.335472,0 -0.605667,0.102625 -0.810586,0.307296 -0.204092,0.20401 -0.306552,0.569062 -0.306552,1.092845 v 7.39046 l 0.995674,0.111053 z m -2.996855,5.94248 c -0.203927,0 -0.367945,0.06462 -0.490896,0.195664 -0.122951,0.131627 -0.184344,0.30333 -0.184344,0.517007 0,0.203349 0.06139,0.371498 0.184344,0.502877 0.122951,0.130388 0.286969,0.196243 0.490896,0.196243 0.196574,0 0.356047,-0.06585 0.478668,-0.196243 0.123033,-0.131379 0.184344,-0.299528 0.184344,-0.502877 0,-0.213677 -0.06131,-0.38538 -0.184344,-0.517007 -0.122621,-0.131049 -0.282094,-0.195664 -0.478668,-0.195664 z m 0.491558,-7.31775 h -0.995013 v 5.892738 h 0.995013 z m -3.450321,2.369126 c 0,0.45925 -0.149475,0.820419 -0.448342,1.086731 -0.298207,0.266312 -0.726222,0.39893 -1.282974,0.39893 h -0.724321 v -2.970083 h 0.663259 c 0.629712,0 1.086152,0.124274 1.368246,0.373399 0.283416,0.249538 0.424132,0.620375 0.424132,1.111023 z m -0.159803,3.904529 c 0,0.392817 -0.138816,0.716225 -0.417027,0.969564 -0.27854,0.254992 -0.716554,0.381165 -1.313959,0.381165 h -0.564848 v -2.922654 h 0.553528 c 0.571294,0 1.005094,0.140138 1.300739,0.418018 0.295066,0.278541 0.441567,0.662929 0.441567,1.153907 z m 1.080285,0.0371 c 0,-0.294984 -0.03644,-0.55262 -0.10973,-0.773321 -0.07354,-0.221114 -0.174594,-0.411903 -0.301099,-0.571376 -0.126917,-0.160052 -0.27474,-0.28887 -0.441897,-0.385958 -0.168149,-0.09949 -0.342165,-0.172363 -0.521634,-0.221114 v -0.02553 c 0.220205,-0.04065 0.427355,-0.117829 0.619135,-0.232682 0.193351,-0.115267 0.360839,-0.257884 0.503787,-0.429586 0.144021,-0.171785 0.258875,-0.375051 0.343734,-0.609138 0.08618,-0.232682 0.128818,-0.488004 0.128818,-0.767206 0,-0.334976 -0.0571,-0.641611 -0.171041,-0.919573 -0.115928,-0.27945 -0.293744,-0.519982 -0.534524,-0.724239 -0.24144,-0.205002 -0.546092,-0.364723 -0.914698,-0.479659 C 76.033926,71.660817 75.596242,71.60372 75.08849,71.60372 h -1.730655 v 8.471327 h 1.632244 c 0.499325,0 0.92701,-0.05032 1.282974,-0.152284 0.356377,-0.103947 0.64946,-0.249208 0.877928,-0.436444 0.228551,-0.188146 0.395047,-0.416366 0.497754,-0.681686 0.101303,-0.266229 0.152615,-0.562866 0.152615,-0.890157 z m -7.955228,-1.289501 c -0.02487,0.01686 -0.07841,0.03751 -0.159473,0.0623 -0.08197,0.02355 -0.193021,0.03619 -0.331424,0.03619 -0.31184,0 -0.55485,-0.08329 -0.730766,-0.251769 -0.176908,-0.168149 -0.301181,-0.34985 -0.37439,-0.546092 v -4.321887 h -0.995096 v 5.892738 h 0.909162 v -0.7972 h 0.02487 c 0.04007,0.114275 0.09362,0.226898 0.159473,0.336959 0.06585,0.111053 0.146831,0.209463 0.244994,0.294984 0.09874,0.08618 0.214917,0.154019 0.349519,0.202688 0.135263,0.04908 0.296967,0.07362 0.485442,0.07362 0.139147,0 0.2521,-0.01256 0.337621,-0.03677 0.08585,-0.02454 0.153358,-0.04454 0.202687,-0.06131 z m -4.665291,2.566029 c 0,-0.188806 -0.05809,-0.339521 -0.171371,-0.454126 -0.115267,-0.114276 -0.254992,-0.172364 -0.418018,-0.172364 -0.164266,0 -0.302751,0.05809 -0.417605,0.172364 -0.114606,0.114605 -0.172694,0.26532 -0.172694,0.454126 0,0.188806 0.05809,0.340512 0.172694,0.454457 0.114854,0.114606 0.253339,0.171702 0.417605,0.171702 0.163026,0 0.302751,-0.0571 0.418018,-0.171702 0.113283,-0.113945 0.171371,-0.265651 0.171371,-0.454457 z m -1.890789,0 c 0,-0.188806 -0.05743,-0.339521 -0.172033,-0.454126 -0.114605,-0.114276 -0.253339,-0.172364 -0.417687,-0.172364 -0.163935,0 -0.302999,0.05809 -0.416943,0.172364 -0.114276,0.114605 -0.172694,0.26532 -0.172694,0.454126 0,0.188806 0.05842,0.340512 0.172694,0.454457 0.113944,0.114606 0.253008,0.171702 0.416943,0.171702 0.164348,0 0.303082,-0.0571 0.417687,-0.171702 0.114606,-0.113945 0.172033,-0.265651 0.172033,-0.454457 z m 2.442748,-7.587284 h -0.908253 v 0.662351 h -0.02421 c -0.02586,-0.04817 -0.07817,-0.120142 -0.160134,-0.214669 -0.08197,-0.09296 -0.185584,-0.183683 -0.31341,-0.270196 -0.125844,-0.08486 -0.280194,-0.162034 -0.459911,-0.226567 -0.18013,-0.06618 -0.380918,-0.09775 -0.601949,-0.09775 -0.261519,0 -0.497424,0.03801 -0.705317,0.116837 -0.208472,0.07676 -0.386619,0.201366 -0.534111,0.37406 -0.147905,0.172032 -0.260858,0.394386 -0.338281,0.669126 -0.07651,0.274326 -0.115928,0.610955 -0.115928,1.012199 v 3.867347 h 0.994765 V 73.70331 c 0,-0.491557 0.07916,-0.841489 0.238879,-1.049961 0.159804,-0.208224 0.407028,-0.31308 0.742335,-0.31308 0.286308,0 0.528409,0.07197 0.723991,0.214669 0.197234,0.142287 0.352824,0.283995 0.467347,0.42405 v 4.517468 h 0.994187 z m -5.107519,5.083557 H 59.422365 V 71.603719 H 58.4276 v 5.083557 h -0.712423 v 0.663011 l 0.712423,0.134932 v 1.178036 c 0,0.318946 0.04487,0.593273 0.136172,0.823063 0.08907,0.22855 0.207893,0.417356 0.355055,0.563939 0.147492,0.147823 0.319524,0.254331 0.516098,0.319856 0.196242,0.06585 0.405375,0.09742 0.625828,0.09742 0.212686,0 0.392816,-0.02809 0.539978,-0.08585 0.147492,-0.05644 0.245324,-0.102295 0.295066,-0.134272 l -0.208885,-0.823063 c -0.04933,0.03231 -0.118737,0.06784 -0.208802,0.105269 -0.0894,0.03545 -0.200457,0.05453 -0.331175,0.05453 -0.237227,0 -0.417688,-0.07395 -0.540639,-0.220453 -0.122951,-0.147823 -0.183931,-0.418018 -0.183931,-0.811082 v -1.056158 h 1.325858 z m 77.335199,7.297505 v 3.793724 c 0,0.482551 -0.0694,0.830417 -0.20905,1.043599 -0.13799,0.212355 -0.36439,0.318946 -0.67425,0.318946 -0.16443,0 -0.30903,-0.02066 -0.43793,-0.06115 -0.1256,-0.04131 -0.23632,-0.09254 -0.33547,-0.153689 -0.1,-0.06114 -0.18426,-0.128901 -0.2578,-0.20244 -0.0735,-0.07437 -0.13469,-0.138816 -0.18427,-0.196656 v -4.542339 h -0.99567 v 5.893316 h 0.90891 V 89.21459 h 0.0256 c 0.0405,0.06528 0.10246,0.1446 0.18261,0.238796 0.0826,0.09502 0.18509,0.184262 0.3082,0.271022 0.12229,0.08593 0.26689,0.15782 0.42884,0.214834 0.16444,0.05701 0.34704,0.08511 0.55362,0.08511 0.67094,0 1.14523,-0.261106 1.42369,-0.784971 0.0562,0.08098 0.13468,0.168562 0.23466,0.264412 0.0959,0.09337 0.21153,0.179304 0.34126,0.257801 0.1322,0.07684 0.28011,0.140468 0.44289,0.189219 0.1636,0.0504 0.34456,0.07354 0.54121,0.07354 1.19481,0 1.79222,-0.694906 1.79222,-2.08637 v -3.953198 h -0.99485 v 3.793724 c 0,0.482551 -0.0859,0.830417 -0.25698,1.043599 -0.17186,0.212355 -0.42553,0.318946 -0.76266,0.318946 -0.27763,0 -0.50816,-0.06776 -0.69242,-0.20244 -0.18592,-0.135511 -0.33052,-0.264411 -0.43546,-0.386701 0.0149,-0.09172 0.0281,-0.185915 0.0364,-0.2892 0.007,-0.10246 0.0116,-0.210703 0.0116,-0.32473 v -3.953198 z m -4.61563,0 h -0.90809 v 0.662929 h -0.0256 c -0.024,-0.04875 -0.0777,-0.120638 -0.15782,-0.214834 -0.0826,-0.09502 -0.18757,-0.184262 -0.31482,-0.271022 -0.12642,-0.08511 -0.27928,-0.160299 -0.46024,-0.226485 -0.18013,-0.06519 -0.38092,-0.09841 -0.59988,-0.09841 -0.26359,0 -0.49908,0.03933 -0.70896,0.117167 -0.20822,0.07717 -0.38505,0.201944 -0.53378,0.373811 -0.14542,0.172694 -0.25945,0.394965 -0.33795,0.669292 -0.0752,0.274326 -0.1165,0.611451 -0.1165,1.012199 v 3.868669 h 0.99484 v -3.794303 c 0,-0.490814 0.081,-0.841159 0.23963,-1.049383 0.1603,-0.20905 0.40736,-0.313988 0.74365,-0.313988 0.28672,0 0.52717,0.07189 0.72383,0.21566 0.19748,0.142948 0.352,0.284243 0.46685,0.424711 v 4.517303 h 0.99485 z m -6.13765,7.317006 c -0.20657,0 -0.36935,0.06528 -0.49329,0.196656 -0.12312,0.130553 -0.18426,0.30242 -0.18426,0.514776 0,0.204918 0.0611,0.372654 0.18426,0.503207 0.12394,0.13138 0.28672,0.196656 0.49329,0.196656 0.195,0 0.35448,-0.06528 0.47842,-0.196656 0.12312,-0.130553 0.18343,-0.298289 0.18343,-0.503207 0,-0.212356 -0.0603,-0.384223 -0.18343,-0.514776 -0.12394,-0.13138 -0.28342,-0.196656 -0.47842,-0.196656 z m 0.48999,-7.317006 h -0.99568 v 5.893316 h 0.99568 z m -1.97648,5.021585 c -0.0248,0.0157 -0.0785,0.03636 -0.15864,0.06032 -0.0835,0.02561 -0.19418,0.03718 -0.33217,0.03718 -0.31068,0 -0.55526,-0.08428 -0.73126,-0.25119 -0.176,-0.167736 -0.30077,-0.350345 -0.37431,-0.546175 v -4.321721 h -0.99402 v 5.893316 h 0.90809 v -0.798192 h 0.0231 c 0.043,0.114028 0.095,0.227229 0.16113,0.337125 0.0644,0.111548 0.1479,0.208224 0.2454,0.294984 0.1,0.08511 0.21566,0.152862 0.34952,0.202439 0.13551,0.04875 0.29747,0.07437 0.48586,0.07437 0.13964,0 0.25119,-0.01239 0.33712,-0.03801 0.0851,-0.02396 0.15287,-0.04462 0.20162,-0.06032 z m -5.78234,0.208224 c -0.352,0 -0.63459,-0.147905 -0.84695,-0.442063 -0.214,-0.294158 -0.33712,-0.720521 -0.37017,-1.275785 h 2.14917 c 0.008,0.04049 0.0157,0.09915 0.0198,0.176825 0.003,0.0785 0.007,0.161126 0.007,0.252844 0,0.409011 -0.0835,0.725478 -0.24789,0.951054 -0.1636,0.22475 -0.40075,0.337125 -0.7106,0.337125 z m 1.86575,-1.326189 c 0,-0.254495 -0.008,-0.472635 -0.0256,-0.656896 -0.0149,-0.183436 -0.0331,-0.345388 -0.0487,-0.484204 h -3.0085 c 0.0331,-0.695732 0.18261,-1.208029 0.4495,-1.535238 0.26606,-0.327209 0.64863,-0.49164 1.14771,-0.49164 0.17104,0 0.32721,0.02148 0.46685,0.06197 0.13882,0.04049 0.25697,0.09007 0.36109,0.147079 0.10163,0.05701 0.19004,0.114854 0.2578,0.172694 0.0702,0.05619 0.12146,0.102459 0.15451,0.134684 l 0.3677,-0.699863 c -0.0413,-0.04131 -0.10329,-0.09998 -0.18426,-0.178478 -0.081,-0.07684 -0.1917,-0.154515 -0.33217,-0.233013 -0.13799,-0.07767 -0.30986,-0.14493 -0.51312,-0.202687 -0.20492,-0.05685 -0.44702,-0.08585 -0.72631,-0.08585 -0.36687,0 -0.69986,0.06098 -0.9998,0.184426 -0.29829,0.122291 -0.55196,0.313163 -0.76184,0.570137 -0.20822,0.257801 -0.37017,0.585837 -0.48503,0.98328 -0.11485,0.396617 -0.17104,0.873384 -0.17104,1.429474 0,0.523865 0.0578,0.976669 0.17683,1.357587 0.11898,0.379265 0.28176,0.693254 0.48585,0.937834 0.20492,0.247059 0.44041,0.428016 0.71143,0.547001 0.26937,0.118985 0.56188,0.177651 0.87339,0.177651 0.5627,0 1.00641,-0.177651 1.32619,-0.53378 0.31812,-0.355303 0.47759,-0.889083 0.47759,-1.602168 z m -4.82551,1.178284 h -1.289 v -3.265481 c 0,-0.417274 0.0529,-0.70069 0.15947,-0.852726 0.10576,-0.151211 0.28672,-0.228055 0.54039,-0.228055 0.14791,0 0.27515,0.02148 0.38092,0.06197 0.10576,0.04049 0.18343,0.0785 0.23301,0.110723 l 0.13469,-0.798192 c -0.0397,-0.03222 -0.13882,-0.08428 -0.29499,-0.153441 -0.15534,-0.06875 -0.36439,-0.104525 -0.62467,-0.104525 -0.50734,0 -0.88908,0.141707 -1.14275,0.424049 -0.2545,0.28259 -0.38092,0.751094 -0.38092,1.404686 v 3.400991 h -0.71143 v 0.663507 l 0.71143,0.147905 0.11155,1.644308 h 0.8833 v -1.644308 h 1.41295 z m -4.27355,-0.380092 c -0.0644,0.07354 -0.18178,0.174346 -0.35365,0.300768 -0.17352,0.127248 -0.39909,0.190872 -0.6759,0.190872 -0.26276,0 -0.46272,-0.06197 -0.60236,-0.185088 -0.13964,-0.12229 -0.20822,-0.269369 -0.20822,-0.441236 0,-0.222271 0.0628,-0.402401 0.19004,-0.547001 0.12725,-0.142948 0.31977,-0.29581 0.58336,-0.459415 l 0.36935,-0.221445 c 0.39992,-0.237143 0.71474,-0.493292 0.94362,-0.767619 0.22888,-0.274327 0.34373,-0.627977 0.34373,-1.061777 0,-0.466851 -0.16195,-0.859336 -0.48503,-1.179109 -0.32308,-0.318946 -0.78745,-0.478584 -1.39312,-0.478584 -0.23714,0 -0.44536,0.02454 -0.62549,0.0742 -0.18096,0.04842 -0.33795,0.106095 -0.47264,0.171372 -0.13551,0.0661 -0.24871,0.137163 -0.33795,0.214007 -0.0901,0.0785 -0.1636,0.150384 -0.22144,0.216487 l 0.47924,0.784971 c 0.0496,-0.04875 0.10907,-0.10659 0.17765,-0.171867 0.0702,-0.0661 0.15369,-0.1289 0.25285,-0.190046 0.0975,-0.06197 0.20905,-0.113201 0.33051,-0.153689 0.12229,-0.04049 0.26606,-0.06197 0.42967,-0.06197 0.29333,0 0.51973,0.0661 0.67507,0.197482 0.15617,0.130553 0.23302,0.290853 0.23302,0.478419 0,0.139643 -0.0174,0.259454 -0.0562,0.36274 -0.0364,0.101633 -0.0892,0.194177 -0.16361,0.275979 -0.0744,0.0818 -0.16525,0.159473 -0.27184,0.233013 -0.10412,0.07354 -0.22806,0.156168 -0.36687,0.24458 l -0.36853,0.234665 c -0.36769,0.237144 -0.65689,0.486682 -0.86677,0.749441 -0.20822,0.261106 -0.31234,0.596578 -0.31234,1.00559 0,0.221444 0.0438,0.423884 0.12808,0.608146 0.0876,0.183435 0.20657,0.342908 0.36274,0.479245 0.15534,0.134685 0.33877,0.241276 0.547,0.31812 0.20905,0.0785 0.43215,0.116506 0.66929,0.116506 0.23053,0 0.42471,-0.02148 0.58914,-0.0661 0.16361,-0.04545 0.30573,-0.103286 0.42471,-0.172694 0.11816,-0.06941 0.21566,-0.138816 0.29333,-0.209877 0.076,-0.06776 0.14295,-0.127248 0.19005,-0.176825 z m -4.55448,2.615194 c -0.20409,0 -0.36605,0.06528 -0.49082,0.196656 -0.12311,0.130553 -0.18426,0.30242 -0.18426,0.514776 0,0.204918 0.0612,0.372654 0.18426,0.503207 0.12477,0.13138 0.28673,0.196656 0.49082,0.196656 0.19583,0 0.35695,-0.06528 0.48172,-0.196656 0.12147,-0.130553 0.18179,-0.298289 0.18179,-0.503207 0,-0.212356 -0.0603,-0.384223 -0.18179,-0.514776 -0.12477,-0.13138 -0.28589,-0.196656 -0.48172,-0.196656 z m 0.49329,-7.317006 h -0.99567 v 5.893316 h 0.99567 z m -3.47618,0 v 3.793724 c 0,0.499077 -0.0826,0.856859 -0.25037,1.074172 -0.16773,0.217313 -0.42471,0.325556 -0.76927,0.325556 -0.29416,0 -0.53956,-0.07437 -0.73457,-0.222271 -0.19831,-0.146252 -0.35199,-0.2892 -0.4685,-0.428842 V 83.98478 h -0.9932 v 5.893316 h 0.90892 V 89.21459 h 0.024 c 0.024,0.0504 0.0785,0.120637 0.15782,0.214834 0.0826,0.09502 0.19005,0.184262 0.3206,0.270195 0.13138,0.08593 0.28589,0.161126 0.46603,0.227229 0.18095,0.06528 0.38587,0.0975 0.61475,0.0975 0.26193,0 0.49825,-0.03801 0.71143,-0.116506 0.21236,-0.07684 0.39249,-0.201613 0.54039,-0.373481 0.14708,-0.172694 0.26359,-0.394964 0.34539,-0.669291 0.0802,-0.274327 0.12064,-0.611451 0.12064,-1.013026 V 83.98478 Z m -5.231216,7.317006 c -0.203266,0 -0.366871,0.06528 -0.489161,0.196656 -0.123943,0.130553 -0.185088,0.30242 -0.185088,0.514776 0,0.204918 0.06114,0.372654 0.185088,0.503207 0.12229,0.13138 0.285895,0.196656 0.489161,0.196656 0.196656,0 0.358606,-0.06528 0.481726,-0.196656 0.12064,-0.130553 0.18178,-0.298289 0.18178,-0.503207 0,-0.212356 -0.0611,-0.384223 -0.18178,-0.514776 -0.12312,-0.13138 -0.28507,-0.196656 -0.481726,-0.196656 z m 0.492466,-7.317006 h -0.993195 v 5.893316 h 0.993195 z m -6.568143,0 v 3.793724 c 0,0.482551 -0.07023,0.830417 -0.209876,1.043599 -0.138816,0.212355 -0.363566,0.318946 -0.675076,0.318946 -0.163604,0 -0.308204,-0.02066 -0.435452,-0.06115 -0.126422,-0.04131 -0.239623,-0.09254 -0.338777,-0.153689 -0.09668,-0.06114 -0.183436,-0.128901 -0.256975,-0.20244 -0.07354,-0.07437 -0.135511,-0.138816 -0.183435,-0.196656 v -4.542339 h -0.994022 v 5.893316 h 0.906435 V 89.21459 h 0.02644 c 0.04049,0.06528 0.100806,0.1446 0.183435,0.238796 0.08263,0.09502 0.184262,0.184262 0.307378,0.271022 0.12229,0.08593 0.265238,0.15782 0.430495,0.214834 0.162778,0.05701 0.34704,0.08511 0.551132,0.08511 0.670944,0 1.146058,-0.261106 1.424516,-0.784971 0.05701,0.08098 0.136338,0.168562 0.232187,0.264412 0.09915,0.09337 0.212355,0.179304 0.345387,0.257801 0.129727,0.07684 0.276806,0.140468 0.441236,0.189219 0.161952,0.0504 0.344561,0.07354 0.539565,0.07354 1.196461,0 1.791387,-0.694906 1.791387,-2.08637 v -3.953198 h -0.993195 v 3.793724 c 0,0.482551 -0.08511,0.830417 -0.257801,1.043599 -0.171042,0.212355 -0.424711,0.318946 -0.760183,0.318946 -0.277632,0 -0.508992,-0.06776 -0.69408,-0.20244 -0.184262,-0.135511 -0.330514,-0.264411 -0.435452,-0.386701 0.0157,-0.09172 0.02809,-0.185915 0.03636,-0.2892 0.0083,-0.10246 0.01239,-0.210703 0.01239,-0.32473 v -3.953198 z m -4.849469,4.701812 c -0.06528,0.07354 -0.185915,0.174346 -0.356129,0.300768 -0.172694,0.127248 -0.396617,0.190872 -0.675902,0.190872 -0.26028,0 -0.461894,-0.06197 -0.601536,-0.185088 -0.138816,-0.12229 -0.207397,-0.269369 -0.207397,-0.441236 0,-0.222271 0.06197,-0.402401 0.190045,-0.547001 0.126422,-0.142948 0.319773,-0.29581 0.582531,-0.459415 l 0.368524,-0.221445 c 0.401575,-0.237143 0.715563,-0.493292 0.94527,-0.767619 0.229708,-0.274327 0.343735,-0.627977 0.343735,-1.061777 0,-0.466851 -0.161952,-0.859336 -0.484203,-1.179109 -0.323904,-0.318946 -0.789103,-0.478584 -1.393117,-0.478584 -0.238797,0 -0.446195,0.02454 -0.627151,0.0742 -0.18013,0.04842 -0.337951,0.106095 -0.473462,0.171372 -0.134684,0.0661 -0.247885,0.137163 -0.337124,0.214007 -0.08924,0.0785 -0.163605,0.150384 -0.221445,0.216487 l 0.479246,0.784971 c 0.04958,-0.04875 0.108243,-0.10659 0.178478,-0.171867 0.07023,-0.0661 0.153689,-0.1289 0.252017,-0.190046 0.09833,-0.06197 0.208224,-0.113201 0.330514,-0.153689 0.123943,-0.04049 0.266064,-0.06197 0.430495,-0.06197 0.293331,0 0.519733,0.0661 0.672596,0.197482 0.156994,0.130553 0.236318,0.290853 0.236318,0.478419 0,0.139643 -0.02066,0.259454 -0.05619,0.36274 -0.03718,0.101633 -0.09254,0.194177 -0.166083,0.275979 -0.07437,0.0818 -0.162778,0.159473 -0.269369,0.233013 -0.106591,0.07354 -0.228881,0.156168 -0.368524,0.24458 l -0.367697,0.234665 c -0.369349,0.237144 -0.657723,0.486682 -0.865947,0.749441 -0.20905,0.261106 -0.313988,0.596578 -0.313988,1.00559 0,0.221444 0.04297,0.423884 0.129726,0.608146 0.08511,0.183435 0.206572,0.342908 0.36274,0.479245 0.154515,0.134685 0.337124,0.241276 0.545348,0.31812 0.20905,0.0785 0.432974,0.116506 0.669291,0.116506 0.228882,0 0.425537,-0.02148 0.589142,-0.0661 0.163605,-0.04545 0.304073,-0.103286 0.422232,-0.172694 0.119811,-0.06941 0.218139,-0.138816 0.296636,-0.209877 0.07767,-0.06776 0.140469,-0.127248 0.190046,-0.176825 z m -5.734422,0.527997 c -0.351171,0 -0.633761,-0.147905 -0.846116,-0.442063 -0.214008,-0.294158 -0.335472,-0.720521 -0.368523,-1.275785 h 2.149168 c 0.0083,0.04049 0.01322,0.09915 0.01735,0.176825 0.0041,0.0785 0.0066,0.161126 0.0066,0.252844 0,0.409011 -0.0818,0.725478 -0.246234,0.951054 -0.163604,0.22475 -0.400748,0.337125 -0.712258,0.337125 z M 85.144302,87.8884 c 0,-0.254495 -0.0091,-0.472635 -0.02562,-0.656896 -0.01653,-0.183436 -0.03222,-0.345388 -0.04792,-0.484204 h -3.008505 c 0.03305,-0.695732 0.182609,-1.208029 0.447846,-1.535238 0.266064,-0.327209 0.649461,-0.49164 1.147711,-0.49164 0.171867,0 0.328035,0.02148 0.466025,0.06197 0.139642,0.04049 0.26028,0.09007 0.362739,0.147079 0.10246,0.05701 0.18922,0.114854 0.259454,0.172694 0.06858,0.05619 0.118985,0.102459 0.152036,0.134684 l 0.367698,-0.699863 c -0.04049,-0.04131 -0.101634,-0.09998 -0.183436,-0.178478 -0.08098,-0.07684 -0.191698,-0.154515 -0.330514,-0.233013 -0.139642,-0.07767 -0.312336,-0.14493 -0.516428,-0.202687 -0.204919,-0.05685 -0.446195,-0.08585 -0.724653,-0.08585 -0.368523,0 -0.702343,0.06098 -1.000632,0.184426 -0.299115,0.122291 -0.551958,0.313163 -0.761009,0.570137 -0.208223,0.257801 -0.370175,0.585837 -0.485029,0.98328 -0.114606,0.396617 -0.172033,0.873384 -0.172033,1.429474 0,0.523865 0.059,0.976669 0.178478,1.357587 0.118324,0.379265 0.27945,0.693254 0.484368,0.937834 0.204093,0.247059 0.44289,0.428016 0.712259,0.547001 0.269369,0.118985 0.561047,0.177651 0.871731,0.177651 0.565179,0 1.007242,-0.177651 1.326188,-0.53378 0.318946,-0.355303 0.479246,-0.889083 0.479246,-1.602168 z m -7.403601,-3.167978 c 0.154929,0 0.294075,0.02148 0.416696,0.06197 0.123943,0.04049 0.22979,0.09172 0.319855,0.153689 0.08973,0.06115 0.165918,0.123943 0.227559,0.190046 0.06098,0.06528 0.10783,0.123117 0.140055,0.171867 V 88.932 c -0.0894,0.05784 -0.193681,0.106591 -0.313079,0.147905 -0.118407,0.04049 -0.267882,0.06115 -0.447682,0.06115 -0.228468,0 -0.444128,-0.03884 -0.644585,-0.116506 -0.200044,-0.07767 -0.374721,-0.206571 -0.521551,-0.385875 -0.147162,-0.181783 -0.264329,-0.415622 -0.351172,-0.70069 -0.08461,-0.285895 -0.127826,-0.638719 -0.127826,-1.055993 0,-0.409012 0.03487,-0.751094 0.104608,-1.025421 0.06933,-0.2735 0.165257,-0.494945 0.287547,-0.66268 0.122951,-0.168563 0.262759,-0.288374 0.418348,-0.36274 0.155259,-0.07271 0.318864,-0.110722 0.491227,-0.110722 z m -2.332687,2.123554 c 0,0.59823 0.07718,1.098133 0.233426,1.498881 0.155507,0.400749 0.355303,0.723827 0.600627,0.97006 0.246316,0.245406 0.524526,0.418926 0.835375,0.522212 0.310766,0.102459 0.621945,0.153689 0.933124,0.153689 0.187815,0 0.35175,-0.0157 0.490896,-0.04379 0.139394,-0.02809 0.254,-0.0628 0.343404,-0.104938 v 2.824244 l 0.994765,0.110722 v -8.790273 h -0.907922 v 0.625746 h -0.02454 c -0.02454,-0.04958 -0.07032,-0.11568 -0.134932,-0.20244 -0.06586,-0.08593 -0.156168,-0.171867 -0.270774,-0.257801 -0.114275,-0.08511 -0.257884,-0.160382 -0.429255,-0.221362 -0.172363,-0.06098 -0.37282,-0.09197 -0.602032,-0.09197 -0.277549,0 -0.541878,0.0552 -0.792325,0.166248 -0.248877,0.109896 -0.468008,0.285895 -0.656897,0.52717 -0.187815,0.242102 -0.336959,0.552785 -0.447929,0.933703 -0.109814,0.380091 -0.16501,0.840332 -0.16501,1.379897 z M 73.197122,83.98478 v 3.793724 c 0,0.499077 -0.08329,0.856859 -0.25086,1.074172 -0.168479,0.217313 -0.423719,0.325556 -0.767784,0.325556 -0.294736,0 -0.540061,-0.07437 -0.736882,-0.222271 -0.195995,-0.146252 -0.351171,-0.2892 -0.465777,-0.428842 V 83.98478 h -0.995095 v 5.893316 h 0.908583 V 89.21459 h 0.02487 c 0.02454,0.0504 0.07676,0.120637 0.160052,0.214834 0.08106,0.09502 0.187567,0.184262 0.318615,0.270195 0.130719,0.08593 0.286556,0.161126 0.466356,0.227229 0.180791,0.06528 0.384718,0.0975 0.614261,0.0975 0.261767,0 0.498993,-0.03801 0.71234,-0.116506 0.212356,-0.07684 0.393147,-0.201613 0.539978,-0.373481 0.147161,-0.172694 0.261767,-0.394964 0.342826,-0.669291 0.08263,-0.274327 0.123612,-0.611451 0.123612,-1.013026 V 83.98478 Z m -4.738251,0 h -0.909245 v 0.662929 h -0.02388 c -0.02454,-0.04875 -0.07775,-0.120638 -0.160134,-0.214834 -0.08164,-0.09502 -0.184923,-0.184262 -0.312749,-0.271022 -0.126835,-0.08511 -0.280442,-0.160299 -0.461233,-0.226485 -0.179139,-0.06519 -0.379843,-0.09841 -0.601288,-0.09841 -0.262098,0 -0.496763,0.03933 -0.704904,0.117167 -0.209546,0.07717 -0.387032,0.201944 -0.535185,0.373811 -0.147492,0.172694 -0.259784,0.394965 -0.336629,0.669292 -0.07874,0.274326 -0.117167,0.611451 -0.117167,1.012199 v 3.868669 h 0.994434 v -3.794303 c 0,-0.490814 0.08007,-0.841159 0.23888,-1.049383 0.160051,-0.20905 0.407937,-0.313988 0.743326,-0.313988 0.286308,0 0.528327,0.07189 0.72457,0.21566 0.196243,0.142948 0.351171,0.284243 0.466768,0.424711 v 4.517303 h 0.994435 z m -6.581281,2.369208 c 0,0.458589 -0.149393,0.820502 -0.44793,1.086566 -0.29928,0.266064 -0.726883,0.399096 -1.282725,0.399096 h -0.72457 v -2.971323 h 0.663259 c 0.630043,0 1.086401,0.125595 1.368494,0.374307 0.282425,0.250365 0.423472,0.621367 0.423472,1.111354 z m -0.15906,3.905026 c 0,0.392485 -0.139477,0.715563 -0.418679,0.969232 -0.277549,0.25367 -0.715563,0.380918 -1.312968,0.380918 h -0.564518 v -2.922572 h 0.552207 c 0.572946,0 1.007076,0.138816 1.301399,0.417274 0.295315,0.278459 0.442559,0.663508 0.442559,1.155148 z m 1.079955,0.03636 c 0,-0.294158 -0.03677,-0.552785 -0.110722,-0.775056 -0.07329,-0.220618 -0.173355,-0.409837 -0.30019,-0.570137 -0.127496,-0.158647 -0.274327,-0.288373 -0.442476,-0.386701 -0.16724,-0.0975 -0.341173,-0.171041 -0.521303,-0.220619 v -0.02396 c 0.220783,-0.04131 0.427685,-0.118159 0.619714,-0.233839 0.19269,-0.114853 0.361169,-0.257801 0.503208,-0.429668 0.143608,-0.171867 0.258214,-0.373481 0.344065,-0.60732 0.08552,-0.233839 0.128818,-0.489987 0.128818,-0.768445 0,-0.334646 -0.05751,-0.641198 -0.171372,-0.91883 -0.114275,-0.279284 -0.293083,-0.521386 -0.535185,-0.725478 -0.240449,-0.204093 -0.545183,-0.364392 -0.913789,-0.479246 -0.368606,-0.114027 -0.806868,-0.171289 -1.313629,-0.171289 h -1.730985 v 8.4705 h 1.632244 c 0.499325,0 0.927258,-0.0504 1.283635,-0.152862 0.355385,-0.10246 0.648138,-0.24706 0.877267,-0.436279 0.228881,-0.187567 0.394717,-0.414796 0.497424,-0.680859 0.101633,-0.266891 0.153276,-0.563527 0.153276,-0.88991"/><path inkscape:connector-curvature="0" id="path4826" style="fill:#f2cf04;fill-opacity:1;fill-rule:nonzero;stroke:none;stroke-width:0.08262855" d="m 49.130897,50.970793 h 1.546724 v -20.63491 h -3.610537 v 20.63491 h 2.063813"/><path inkscape:connector-curvature="0" id="path4828" style="fill:#ed1c24;fill-opacity:1;fill-rule:nonzero;stroke:none;stroke-width:0.08262855" d="m 49.130897,71.706013 h 1.546724 v -20.73522 h -3.610537 v 20.73522 h 2.063813"/><path inkscape:connector-curvature="0" id="path4830" style="fill:#231f20;fill-opacity:1;fill-rule:nonzero;stroke:none;stroke-width:0.08262855" d="m 31.254376,84.666714 c 0.02743,0.230534 0.04363,0.469331 0.04363,0.713085 0,0.133032 9.08e-4,0.287547 -0.01553,0.461893 2.056047,0.02975 3.860324,1.51045 3.860324,3.215077 0,0.8676 -0.56551,1.520365 -0.884704,1.912025 0.07131,0.01405 0.143608,0.0314 0.216569,0.04958 0.301099,-0.261106 1.155478,-1.19233 1.155478,-2.368961 0,-2.043404 -2.043074,-3.940555 -4.37576,-3.982696 z m -2.072159,7.11845 c -0.03842,0.227228 -0.124934,0.4338 -0.256562,0.610625 0.0061,0.208224 0.09197,0.407359 0.427603,0.243754 -0.182031,-0.185914 -0.04164,-0.51395 -0.04164,-0.51395 0,0 0.371581,0.171868 0.294075,0.416448 0.551628,-0.132205 0.15592,-0.870905 -0.423471,-0.756877 z m -0.477676,-1.049383 c -0.07428,0.305726 -0.22979,0.618062 -0.429338,0.854379 -0.18203,0.214008 -0.482468,0.469331 -0.885612,0.469331 -0.185254,0 -0.494863,-0.08676 -0.690775,-0.169389 -0.07519,0.133032 -0.217809,0.456936 -0.217809,0.602362 0,0.149558 0.252348,0.301594 0.73622,0.301594 1.064174,0 1.701653,-0.480898 1.701653,-1.288179 0,-0.283416 -0.112706,-0.542043 -0.214339,-0.770098 z m 2.733848,-13.722784 c 0.123282,0 0.184262,-0.02 0.255571,-0.04619 0.306634,-0.834383 1.487644,-2.407218 1.536725,-2.474312 l 0.01165,-0.01388 0.0181,0.0042 c 0.288869,0.04578 1.028312,0.157821 1.648026,0.157821 h 0.01454 c 0.06676,0 0.142286,0 0.191698,-0.04743 0.03933,-0.04074 0.05941,-0.110392 0.05941,-0.210785 0,-0.154268 -0.06519,-0.417357 -0.1427,-0.529319 -0.2169,0.236566 -0.569641,0.342413 -1.131928,0.342413 -0.170132,0 -0.369598,-0.05098 -0.477676,-0.07874 l -0.04487,-0.01 -0.0504,-0.01322 0.325722,-0.325391 c 0.500894,-0.500564 0.934033,-0.933785 0.934033,-1.221332 0,-0.173355 -0.16881,-0.398601 -0.323986,-0.499986 -0.03363,0.52874 -0.567163,1.232653 -1.085161,1.628031 l -0.04421,0.0333 -0.0091,-0.184675 c -0.0071,-0.126174 -0.01834,-0.316302 -0.01834,-0.517089 0,-1.005094 -0.101716,-1.1568 -0.449665,-1.1568 -0.05354,0 -0.135841,0.01553 -0.186244,0.03487 0.196904,0.241441 0.273418,0.561626 0.273418,1.122592 l -0.0026,0.259205 -0.0033,0.208224 c 0,0.230121 0.02487,0.400501 0.04264,0.537664 l 0.01,0.07751 -0.05486,0.0071 c -0.162696,0.02289 -0.464786,0.06387 -0.696228,0.06387 -0.49635,0 -0.831409,-0.0452 -1.076402,-0.274988 -0.160713,0.129727 -0.325639,0.354063 -0.325639,0.495771 0,0.209794 0.130718,0.225907 0.300768,0.225907 0.08684,0 0.16757,-0.01256 0.279201,-0.02578 0.213678,-0.03198 0.534855,-0.07941 1.195222,-0.07941 h 0.04131 l -0.01198,0.04098 c -0.16815,0.479329 -0.62806,1.175887 -1.366925,2.07249 0.06784,0.240449 0.133032,0.39736 0.364144,0.39736 z m -6.369834,-2.46985 -0.01289,-0.04098 h 0.04098 c 0.660698,0 0.982123,0.04743 1.195222,0.07941 0.111962,0.01322 0.19269,0.02578 0.278872,0.02578 0.17038,0 0.301759,-0.01611 0.301759,-0.225907 0,-0.141708 -0.165918,-0.366044 -0.325969,-0.495771 -0.244085,0.22979 -0.580714,0.274988 -1.076155,0.274988 -0.231773,0 -0.534772,-0.04098 -0.696806,-0.06387 l -0.02619,-0.0032 -0.02867,-0.0039 0.0093,-0.07751 c 0.01934,-0.137163 0.04289,-0.307543 0.04289,-0.537664 l -0.0032,-0.208224 -0.0022,-0.259205 c 0,-0.560966 0.07742,-0.881151 0.273418,-1.122592 -0.0504,-0.01933 -0.132701,-0.03487 -0.185914,-0.03487 -0.34861,0 -0.450326,0.151706 -0.450326,1.1568 0,0.200787 -0.01033,0.390915 -0.01776,0.517089 l -0.0097,0.185253 -0.04421,-0.03388 c -0.51742,-0.395378 -1.051531,-1.099291 -1.082847,-1.628031 -0.15625,0.101385 -0.325391,0.326631 -0.325391,0.499986 0,0.287547 0.433469,0.720768 0.934446,1.221332 l 0.288539,0.28763 0.03553,0.03776 -0.09395,0.02322 c -0.1075,0.02776 -0.307626,0.07874 -0.477676,0.07874 -0.563279,0 -0.91445,-0.105847 -1.132011,-0.342413 -0.07775,0.111962 -0.142947,0.375051 -0.142947,0.529319 0,0.100393 0.02,0.170049 0.05842,0.210785 0.04999,0.04743 0.126174,0.04743 0.19302,0.04743 h 0.01388 c 0.620375,0 1.359818,-0.112044 1.649018,-0.157821 l 0.01777,-0.0042 0.01099,0.01388 c 0.049,0.06709 1.23067,1.639929 1.537635,2.474312 0.07007,0.02619 0.13138,0.04619 0.254331,0.04619 0.232682,0 0.296967,-0.156911 0.364722,-0.39736 -0.739112,-0.896603 -1.198114,-1.593161 -1.365932,-2.07249 z M 21.878927,88.64941 c 0,1.176631 0.85438,2.107855 1.155891,2.368961 0.07164,-0.01818 0.1446,-0.03553 0.21657,-0.04958 -0.319855,-0.39166 -0.884704,-1.044425 -0.884704,-1.912025 0,-1.721153 1.839063,-3.215077 3.920311,-3.215077 -0.01322,-0.147905 -0.02033,-0.30242 -0.02033,-0.461893 0,-0.25367 0.01355,-0.489988 0.03966,-0.713085 -2.354583,0.01405 -4.427403,1.924419 -4.427403,3.982696 z M 37.67073,85.024496 c 1.055745,-1.669758 1.882361,-1.641416 3.130465,-1.641416 -1.033187,0.791168 -1.716112,1.805021 -2.041503,2.323928 l -1.928881,3.087002 c -0.189467,0.952708 -0.681933,1.84427 -1.420467,2.50695 0.248216,0.0942 0.454126,0.193351 0.579391,0.286722 -1.260085,0 -2.508933,0.639545 -3.195742,0.639545 -0.441567,0 -0.725891,-0.262759 -0.725891,-0.612278 0.029,-0.388354 0.428924,-0.784971 1.168698,-0.784971 0.16724,0 0.381826,0.02231 0.616491,0.06114 0.401245,-0.557743 0.723992,-1.061777 0.723992,-1.782298 0,-1.350977 -1.616132,-2.404491 -3.248046,-2.404491 -0.0913,0 -0.179386,0.0033 -0.271435,0.01074 -0.148483,0.334646 -0.639049,0.897346 -0.639049,1.537717 0,1.072519 0.699781,1.950034 0.699781,3.01429 0,0.661028 -0.322168,1.070039 -0.446442,1.240254 0.201118,0.185088 0.419588,0.414796 0.471561,0.570137 -0.116836,-0.04958 -0.254661,-0.05619 -0.457018,-0.05619 -0.782079,0 -1.418898,0.203266 -2.040182,0.203266 -0.354393,0 -0.449995,-0.10907 -0.449995,-0.213182 0,-0.03883 0.0059,-0.07767 0.01653,-0.09667 -0.132701,0.05206 -0.257305,0.08593 -0.405128,0.113201 -0.182361,0.0347 -0.379843,0.05206 -0.590629,0.05206 -0.754646,0 -1.023189,-0.315641 -1.023189,-0.587489 0,-0.229707 0.181039,-0.648634 0.38538,-0.96758 0.294984,0.147905 0.648138,0.248712 0.810173,0.248712 0.399922,0 0.757208,-0.381744 0.946014,-0.834549 -0.270196,-0.03222 -0.321838,-0.04462 -0.594513,-0.04462 -0.735311,0 -1.235296,0.263585 -1.337921,0.263585 -0.01033,0 -0.02933,-0.005 -0.02933,-0.02148 0,-0.103286 0.20748,-0.37596 0.618722,-0.526344 0.54097,-0.197482 1.352712,-0.279285 1.487975,-0.301594 0,-0.02396 -0.137494,-0.280937 -0.290522,-0.328862 -0.03256,-0.01157 -0.05809,-0.01239 -0.09651,-0.0041 -0.565179,0.112374 -0.723,0.158646 -1.439885,0.431321 -0.02223,0.0083 -0.03512,-0.005 -0.03512,-0.02809 0,-0.283416 0.734237,-0.910567 1.392374,-1.149363 -0.549315,-0.702343 -1.236537,-1.419559 -1.560275,-2.514387 -0.09097,-0.0074 -0.179717,-0.01074 -0.271766,-0.01074 -1.631252,0 -3.247301,1.053514 -3.247301,2.404491 0,0.720521 0.323077,1.224555 0.723908,1.782298 0.235326,-0.03884 0.448673,-0.06114 0.616161,-0.06114 0.739774,0 1.140026,0.396617 1.169773,0.784971 0,0.349519 -0.284738,0.612278 -0.727214,0.612278 -0.686561,0 -1.934334,-0.639545 -3.195411,-0.639545 0.125265,-0.09337 0.330844,-0.192525 0.57906,-0.286722 -0.737872,-0.66268 -1.231082,-1.554242 -1.419888,-2.50695 l -1.928551,-3.087002 c -0.324647,-0.518907 -1.009555,-1.53276 -2.043073,-2.323928 1.248434,0 2.076042,-0.02834 3.132117,1.641416 l 0.989312,1.583989 c 0.07288,-0.205745 0.163605,-0.405706 0.269452,-0.601536 L 19.129632,82.85901 c -0.326961,-0.521634 -1.005094,-1.527719 -2.041834,-2.323597 1.246865,0 2.075712,-0.02909 3.131126,1.639928 l 1.693637,2.712035 c 0.127166,-0.134685 0.259784,-0.267717 0.401162,-0.392486 L 19.92361,80.668362 c -0.328532,-0.522543 -1.003111,-1.524745 -2.043074,-2.321366 1.248435,0 2.076951,-0.02999 3.132118,1.640672 l 2.329712,3.729853 c 0.153358,-0.09709 0.311179,-0.191699 0.473544,-0.27945 l -2.843248,-4.550437 c -0.329275,-0.523534 -1.003855,-1.523753 -2.042826,-2.322606 1.248765,0 2.076373,-0.02809 3.132118,1.640921 l 2.92786,4.68793 c 0.173933,-0.06751 0.349188,-0.129809 0.527666,-0.187897 l -3.308613,-5.295664 c -0.32349,-0.516098 -1.013191,-1.53309 -2.041586,-2.321614 1.248848,0 2.076042,-0.02809 3.131539,1.639929 l 3.527165,5.644604 c 0.03553,-0.0061 0.07106,-0.01165 0.106261,-0.01876 0.09618,-0.305973 0.162613,-0.589637 0.162613,-0.873714 0,-1.773622 -1.163906,-3.340342 -2.559833,-4.549115 0.08841,-0.03966 0.244333,-0.05197 0.388602,-0.05197 0.287878,0 0.474784,0.01454 0.605502,0.03776 -0.32473,-0.734568 -1.019967,-1.685457 -1.370807,-2.176684 -0.456688,0.0823 -1.122261,0.147162 -1.558292,0.147162 -0.455118,0 -0.507092,-0.267882 -0.507092,-0.505439 0,-0.414135 0.193351,-0.743327 0.419588,-0.92701 0.08395,0.211447 0.254083,0.494201 1.097142,0.494201 0.01479,0 0.0452,-0.002 0.0842,-0.0045 -0.246895,-0.274079 -1.016993,-0.896685 -1.016993,-1.39824 0,-0.332415 0.364392,-0.830169 0.844629,-0.830169 -0.029,0.106508 -0.02512,0.205249 -0.02512,0.279201 0,0.407029 0.360178,0.882804 0.663921,1.213896 -0.0084,-0.0994 -0.0039,-0.08907 -0.0039,-0.203348 0,-0.961466 0.08717,-1.402703 0.696559,-1.402703 0.299198,0 0.5061,0.163605 0.576747,0.213347 -0.396369,0.364723 -0.416365,0.651692 -0.416365,1.190017 6.61e-4,0.140138 9.91e-4,0.27697 0.0029,0.466768 0.0013,0.122952 -3.31e-4,0.285978 -0.02,0.404054 0.218222,0.03008 0.306634,0.03008 0.474122,0.03008 0,0 0.866361,0.06809 1.075163,-0.381248 0.235326,0.21566 0.576417,0.51932 0.576417,0.854709 0,0.222106 -0.104856,0.472883 -0.551215,0.472883 -0.169141,0 -0.700773,-0.103946 -1.144901,-0.103946 0.11915,0.266559 0.65136,1.044507 1.111932,1.608034 0.07007,-0.218883 0.178478,-0.455449 0.419918,-0.648799 0.0333,0.362821 0.246646,1.510863 0.813726,2.181972 0.06676,-0.453218 0.15592,-0.919243 0.15592,-1.899879 0,-2.387138 -0.574599,-4.150101 -1.793039,-4.48673 0.158151,-0.275979 0.493871,-0.523534 0.84215,-0.523534 0.445037,0 0.688791,0.503455 0.935686,0.978239 0.129065,-0.35018 0.484781,-1.210012 0.842398,-1.210012 0.356377,0 0.712671,0.859832 0.841489,1.210012 0.247555,-0.474784 0.490565,-0.978239 0.936677,-0.978239 0.346627,0 0.683255,0.247555 0.841737,0.523534 -1.218441,0.336629 -1.793287,2.099592 -1.793287,4.48673 0,0.980636 0.08907,1.446661 0.154928,1.899879 0.569063,-0.671109 0.781749,-1.819151 0.814718,-2.181972 0.24111,0.19335 0.350179,0.429916 0.421157,0.648799 0.459663,-0.563527 0.991212,-1.341475 1.111272,-1.608034 -0.444377,0 -0.97667,0.103946 -1.14581,0.103946 -0.445699,0 -0.549976,-0.250777 -0.549976,-0.472883 0,-0.335389 0.340843,-0.639049 0.575508,-0.854709 0.208472,0.449334 1.075741,0.381248 1.075741,0.381248 0.167901,0 0.255653,0 0.474536,-0.03008 -0.02008,-0.118076 -0.02132,-0.281102 -0.02066,-0.404054 0.0019,-0.189798 0.0026,-0.32663 0.0029,-0.466768 0,-0.538325 -0.02033,-0.825294 -0.416365,-1.190017 0.07131,-0.04974 0.27788,-0.213347 0.576747,-0.213347 0.609717,0 0.69689,0.441237 0.69689,1.402703 0,0.114275 0.0041,0.103946 -0.0039,0.203348 0.303743,-0.331092 0.66359,-0.806867 0.66359,-1.213896 0,-0.07395 0.0045,-0.172693 -0.02553,-0.279201 0.481311,0 0.846033,0.497754 0.846033,0.830169 0,0.501555 -0.770759,1.124161 -1.018314,1.39824 0.04032,0.0026 0.06875,0.0045 0.08486,0.0045 0.842398,0 1.012199,-0.282754 1.097389,-0.494201 0.224668,0.183683 0.418349,0.512875 0.418349,0.92701 0,0.237557 -0.0504,0.505439 -0.506761,0.505439 -0.435783,0 -1.100364,-0.06486 -1.558622,-0.147162 -0.350924,0.491227 -1.045499,1.442116 -1.370147,2.176684 0.130718,-0.02322 0.317542,-0.03776 0.605833,-0.03776 0.144269,0 0.299198,0.01231 0.388932,0.05197 -1.39667,1.208773 -2.560906,2.775493 -2.560906,4.549115 0,0.284077 0.06751,0.567741 0.162365,0.873714 0.0352,0.0071 0.0723,0.01264 0.107169,0.01876 l 3.526917,-5.644604 c 1.055414,-1.668023 1.883352,-1.639929 3.130796,-1.639929 -1.027982,0.788524 -1.718426,1.805516 -2.040182,2.321614 l -3.310017,5.295664 c 0.179469,0.05809 0.355055,0.12039 0.528079,0.187897 l 2.92786,-4.68793 c 1.056406,-1.669014 1.883022,-1.640921 3.132779,-1.640921 -1.039054,0.798853 -1.713634,1.799072 -2.042165,2.322606 l -2.843579,4.550437 c 0.161374,0.08775 0.319194,0.182361 0.472223,0.27945 l 2.330703,-3.729853 c 1.055414,-1.670667 1.883022,-1.640672 3.130465,-1.640672 -1.038641,0.796621 -1.71322,1.798823 -2.042164,2.321366 l -2.389453,3.826528 c 0.140799,0.124769 0.27474,0.257801 0.400583,0.392486 l 1.693555,-2.712035 c 1.056406,-1.669014 1.883022,-1.639928 3.13187,-1.639928 -1.037732,0.795878 -1.714294,1.801963 -2.041834,2.323597 l -1.967303,3.147982 c 0.105186,0.19583 0.195912,0.395791 0.268543,0.601536 l 0.989972,-1.583989"/><path inkscape:connector-curvature="0" id="path4832" style="fill:#231f20;fill-opacity:1;fill-rule:nonzero;stroke:none;stroke-width:0.08262855" d="M 50.677621,92.237142 V 71.603719 h -3.610537 v 20.633423 h 3.610537"/><use x="0" y="0" xlink:href="#path4830" id="use4878" width="100%" height="100%"/></g></svg>