<?xml version="1.0" encoding="UTF-8" standalone="no"?>
<svg
   xmlns:dc="http://purl.org/dc/elements/1.1/"
   xmlns:cc="http://creativecommons.org/ns#"
   xmlns:rdf="http://www.w3.org/1999/02/22-rdf-syntax-ns#"
   xmlns:svg="http://www.w3.org/2000/svg"
   xmlns="http://www.w3.org/2000/svg"
   id="svg34"
   version="1.1"
   viewBox="0 0 100 100"
   height="100"
   width="100">
  <metadata
     id="metadata40">
    <rdf:RDF>
      <cc:Work
         rdf:about="">
        <dc:format>image/svg+xml</dc:format>
        <dc:type
           rdf:resource="http://purl.org/dc/dcmitype/StillImage" />
        <dc:title></dc:title>
      </cc:Work>
    </rdf:RDF>
  </metadata>
  <defs
     id="defs38" />
  <g
     id="g32"
     style="fill:#000000"
     transform="matrix(1.0258196,0,0,1.0258196,1.6597143,0.99198485)">
    <svg
       style="fill:#000000"
       height="100%"
       width="100%"
       id="svg30"
       y="0px"
       x="0px"
       version="1.1"
       viewBox="0 0 12.7 12.7">
      <g
         style="fill:#000000"
         id="g28"
         transform="translate(0,-284.29998)">
        <path
           id="path8"
           d="m 3.68486,292.70358 a 2.4458314,2.4458314 0 0 0 2.1651403,-1.26715 0.76529803,0.76529803 0 0 0 -0.8532765,-1.11198 2.4458314,2.4458314 0 0 0 -1.7843507,1.76336 0.49256032,0.49256032 0 0 0 0.4724869,0.61577 z"
           style="fill:#000000;stroke:none" />
        <path
           id="path10"
           d="m 7.923443,289.13652 a 0.49256032,0.49256032 0 0 0 -0.1490959,0.80161 1.2456433,1.2456433 0 0 0 1.5834563,0.13924 0.21982254,0.21982254 0 0 0 0.084998,-0.24606 1.1208989,1.1208989 0 0 0 -1.5197581,-0.69479 z"
           style="fill:#000000;stroke:none" />
        <path
           id="path12"
           d="m 7.742848,290.05347 a 1.3514737,1.3514737 0 0 1 -0.042999,-0.0401 0.59839073,0.59839073 0 0 1 -0.144896,-0.23135 1.436931,1.436931 0 0 0 -1.9278468,0.53857 0.87112844,0.87112844 0 0 1 0.3646899,0.43271 1.2704111,1.2704111 0 0 0 1.7507517,-0.69986 z"
           style="fill:#000000;stroke:none" />
        <path
           id="path14"
           d="m 0.58724557,292.90531 c -0.0704303,-0.007 -0.0804303,0.099 -0.01,0.10567 0.42886753,0.0236 0.91644483,0.0834 1.20622213,-0.23361 l 1.8126722,-2.32513 c 0.068534,-0.081 0.2028393,-0.0838 0.2948807,-0.031 l 0.2829256,0.0864 c 0.024819,0.0139 0.056176,0.006 0.070998,-0.0186 l 0.6387266,-0.82443 c 0.07555,-0.1251 0.2144965,-0.12533 0.3139136,-0.0182 l 0.4551209,0.44278 0.1574398,-0.18753 -0.470726,-0.60102 c -0.1473063,-0.15926 -0.5824897,-0.0442 -0.6943558,0.14164 l -0.4711171,0.7235 -0.303315,-0.0614 c -0.1362371,-0.078 -0.4078183,0.0118 -0.5093023,0.13157 l -1.8275263,2.16223 c -0.2682973,0.29266 -0.55012737,0.52899 -0.94655703,0.50716 z"
           style="fill:#000000;stroke:none" />
        <path
           id="path16"
           d="m 6.3981851,289.07632 0.1742952,0.45429 0.1063971,-0.0171 -0.036219,-0.73555 c -0.045066,-0.11807 -0.5175954,-0.0465 -0.595035,0.0534 -0.1754577,0.22606 -0.093354,0.67355 -0.077226,0.95926 l 0.192039,-0.0861 c 5.714e-4,-0.23924 -0.00785,-0.45382 0.1390519,-0.64265 0.026843,-0.0348 0.081414,-0.0267 0.096997,0.0144 z"
           style="fill:#000000;stroke:none" />
        <path
           id="path18"
           d="m 8.9041605,292.2096 c 0.1197211,0.24855 0.4646018,0.29459 0.7344352,0.23716 l 0.1749951,-0.0373 c 0.067949,-0.0154 0.046319,-0.11712 -0.021999,-0.10351 l -0.254286,-0.0618 c -0.2222674,0.0475 -0.2499627,0.0755 -0.3485577,-0.12925 l -0.6679838,-1.66089 c -0.057585,-0.11962 -0.2917786,-0.15753 -0.4239559,-0.14514 l -0.4494574,0.13501 -0.096997,0.11528 0.4970863,-0.0458 c 0.087954,-0.008 0.1716635,0.0394 0.2099942,0.11892 z"
           style="fill:#000000;stroke:none" />
        <path
           id="path20"
           d="m 8.1166284,292.43608 c -0.1910037,-2e-5 -0.305308,-0.0113 -0.3864195,-0.18427 l -0.594417,-1.34634 -0.3463176,0.0627 0.6572819,1.40153 c 0.098553,0.21011 0.309708,0.34429 0.541785,0.34428 h 0.4179885 c 0.070341,-2.1e-4 0.070341,-0.10562 0,-0.10583 z"
           style="fill:#000000;stroke:none" />
        <path
           id="path22"
           d="m 6.8250954,294.02985 c 0.033459,0.0574 -0.1716316,0.11166 -0.2118166,0.0587 l -0.3226577,-0.3694 c -0.049105,-0.0729 -0.2407343,-0.15576 -0.2541923,-0.24264 l -0.085231,-2.00485 0.2833762,-0.26151 0.1698299,2.08919 c 0,0 0.1056188,0.24574 0.1456168,0.30587 z"
           style="fill:#000000;stroke:none" />
        <path
           id="path24"
           d="m 10.464504,287.65698 c -0.7370232,0.47102 -1.1517494,0.63632 -1.6239863,1.37256 l 0.1961106,0.0648 c 0.4632989,-0.71822 0.6938339,-0.57456 1.3079927,-1.12308 0.05369,-0.0392 0.05416,-0.0635 0.119883,-0.31428 z"
           style="fill:#000000;stroke:none" />
        <path
           id="path26"
           d="m 11.376004,288.72148 c -0.541236,0.12612 -1.170336,0.2798 -2.1269208,0.48563 l 0.097821,0.21044 c 0.9412798,-0.20449 1.2525448,-0.16268 1.9738578,-0.49635 0,0 0,0 0.05524,-0.19972 z"
           style="fill:#000000;stroke:none" />
      </g>
    </svg>
  </g>
</svg>
