<?xml version="1.0" encoding="UTF-8" standalone="no"?>

<svg
   xmlns="http://www.w3.org/2000/svg"
   version="1.1"
   x="0px"
   y="0px"
   viewBox="0 0 1000 1000"
   style="enable-background:new 0 0 1000 1000;"
   xml:space="preserve">
<g
   id="g3806"
   style="fill:#ffffff">
	<g
   id="g3802"
   style="fill:#ffffff">
		<path
   d="M290.2,662l-78.6,259.9c-3.4,11.3,9.4,20.6,19.1,13.8l222.9-155.1C383.3,766.9,324,722.5,290.2,662z"
   id="path3792"
   style="fill:#ffffff" />
		<path
   d="M499.7,305.2c36.3,0,70.7,8.1,101.5,22.5L511.8,70.4c-3.9-11.2-19.7-11.2-23.6,0l-89.4,257.1    C429.5,313.2,463.7,305.2,499.7,305.2z"
   id="path3794"
   style="fill:#ffffff" />
		<path
   d="M259.8,545.1c0-63.3,24.5-120.8,64.5-163.6l-272,5.5c-11.8,0.2-16.7,15.3-7.3,22.4l216.5,164.1    C260.5,564.3,259.8,554.8,259.8,545.1z"
   id="path3796"
   style="fill:#ffffff" />
		<path
   d="M709.6,661.4c-33.7,60.7-93,105.3-163.3,119.1l223,155.2c9.7,6.8,22.5-2.5,19.1-13.8L709.6,661.4z"
   id="path3798"
   style="fill:#ffffff" />
		<path
   d="M947.7,387.1l-272.5-5.6c40,42.9,64.5,100.4,64.5,163.6c0,9.8-0.7,19.4-1.8,28.9l217.1-164.6    C964.4,402.3,959.5,387.3,947.7,387.1z"
   id="path3800"
   style="fill:#ffffff" />
	</g>
	<path
   d="M578.9,608.8c-21.4,26.5-55.7,42.1-93.5,37c-45.5-6.2-81.7-43.5-86.8-89.1c-6.8-61.3,41.1-113.3,101-113.3   c29.2,0,55.5,12.3,74,32.1c4,4.2,9.5,6.6,15.3,6.6l66.2,0c7.5,0,12.6-7.8,9.4-14.5c-31.1-65.9-100.4-110.2-179.4-104.1   c-89.4,6.9-161.3,79.7-167.2,169.2c-7.1,106.2,77,194.6,181.8,194.6c75.9,0,141-46.5,168.4-112.5c2.8-6.7-2.3-14.1-9.6-14.1h-63   C589.1,600.7,583,603.8,578.9,608.8z"
   id="path3804"
   style="fill:#ffffff" />
</g>
</svg>
