<?xml version="1.0" encoding="UTF-8" standalone="no"?>
<svg
   xmlns:dc="http://purl.org/dc/elements/1.1/"
   xmlns:cc="http://creativecommons.org/ns#"
   xmlns:rdf="http://www.w3.org/1999/02/22-rdf-syntax-ns#"
   xmlns:svg="http://www.w3.org/2000/svg"
   xmlns="http://www.w3.org/2000/svg"
   xmlns:sodipodi="http://sodipodi.sourceforge.net/DTD/sodipodi-0.dtd"
   xmlns:inkscape="http://www.inkscape.org/namespaces/inkscape"
   version="1.1"
   x="0px"
   y="0px"
   viewBox="0 0 16 16"
   style="enable-background:new 0 0 16 16;"
   xml:space="preserve"
   id="svg82"
   sodipodi:docname="collectives-blue.svg"
   inkscape:version="1.0.2 (e86c870879, 2021-01-15)"><metadata
   id="metadata88"><rdf:RDF><cc:Work
       rdf:about=""><dc:format>image/svg+xml</dc:format><dc:type
         rdf:resource="http://purl.org/dc/dcmitype/StillImage" /><dc:title></dc:title></cc:Work></rdf:RDF></metadata><defs
   id="defs86" /><sodipodi:namedview
   pagecolor="#ffffff"
   bordercolor="#666666"
   borderopacity="1"
   objecttolerance="10"
   gridtolerance="10"
   guidetolerance="10"
   inkscape:pageopacity="0"
   inkscape:pageshadow="2"
   inkscape:window-width="1998"
   inkscape:window-height="1048"
   id="namedview84"
   showgrid="false"
   inkscape:zoom="53.1875"
   inkscape:cx="3.7508813"
   inkscape:cy="8"
   inkscape:window-x="0"
   inkscape:window-y="0"
   inkscape:window-maximized="1"
   inkscape:current-layer="svg82" />
<g
   id="g80">
	<path
   d="M2.9,8.8c0-1.2,0.4-2.4,1.2-3.3L0.3,6c-0.2,0-0.3,0.3-0.1,0.4l2.7,2.6C2.9,9,2.9,8.9,2.9,8.8z"
   fill="#fff"
   id="path68"
   style="fill:#0082c9;fill-opacity:1" />
	<path
   d="M8,3.7c0.7,0,1.3,0.1,1.9,0.4L8.2,0.6c-0.1-0.2-0.3-0.2-0.4,0L6.1,4C6.7,3.8,7.3,3.7,8,3.7z"
   fill="#fff"
   id="path70"
   style="fill:#0082c9;fill-opacity:1" />
	<path
   d="M3.7,11.5L3,15.2c0,0.2,0.2,0.4,0.4,0.3l3.3-1.7C5.4,13.4,4.4,12.6,3.7,11.5z"
   fill="#fff"
   id="path72"
   style="fill:#0082c9;fill-opacity:1" />
	<path
   d="M15.7,6l-3.7-0.5c0.7,0.9,1.2,2,1.2,3.3c0,0.1,0,0.2,0,0.3l2.7-2.6C15.9,6.3,15.9,6.1,15.7,6z"
   fill="#fff"
   id="path74"
   style="fill:#0082c9;fill-opacity:1" />
	<path
   d="M12.3,11.5c-0.7,1.1-1.8,1.9-3,2.2l3.3,1.7c0.2,0.1,0.4-0.1,0.4-0.3L12.3,11.5z"
   fill="#fff"
   id="path76"
   style="fill:#0082c9;fill-opacity:1" />
	<path
   d="M9.6,10.1c-0.4,0.5-1,0.8-1.6,0.8c-1.1,0-2-0.9-2.1-2C5.9,7.7,6.8,6.7,8,6.7c0.6,0,1.1,0.3,1.5,0.7   c0.1,0.1,0.1,0.1,0.2,0.1h1.4c0.2,0,0.4-0.2,0.3-0.5c-0.7-1.3-2.1-2.2-3.8-2.1C5.8,5,4.3,6.6,4.1,8.5C4,10.8,5.8,12.7,8,12.7   c1.6,0,2.9-0.9,3.5-2.3c0.1-0.2-0.1-0.4-0.3-0.4H9.9C9.8,10,9.7,10,9.6,10.1z"
   fill="#fff"
   id="path78"
   style="fill:#0082c9;fill-opacity:1" />
</g>
</svg>
