<?xml version="1.0" encoding="UTF-8" standalone="no"?>
<svg
   xmlns:dc="http://purl.org/dc/elements/1.1/"
   xmlns:cc="http://creativecommons.org/ns#"
   xmlns:rdf="http://www.w3.org/1999/02/22-rdf-syntax-ns#"
   xmlns:svg="http://www.w3.org/2000/svg"
   xmlns="http://www.w3.org/2000/svg"
   xml:space="preserve"
   style="enable-background:new 0 0 20 26.6;"
   viewBox="0 0 20 26.6"
   y="0px"
   x="0px"
   id="Ebene_1"
   version="1.1"><metadata
   id="metadata11"><rdf:RDF><cc:Work
       rdf:about=""><dc:format>image/svg+xml</dc:format><dc:type
         rdf:resource="http://purl.org/dc/dcmitype/StillImage" /><dc:title></dc:title></cc:Work></rdf:RDF></metadata><defs
   id="defs9" />
<path
   style="fill:#ffffff"
   id="path2"
   d="M2,4H0v20.6c0,1.1,0.9,2,2,2h14v-2H2V4z" />
<path
   style="fill:#ffffff"
   id="path4"
   d="M18,0H6C4.9,0,4,0.9,4,2v18.6c0,1.1,0.9,2,2,2h12c1.1,0,2-0.9,2-2V2C20,0.9,19.1,0,18,0z M13,18.3H7v-2h6V18.3z M17,14.3H7  v-2h10V14.3z M17,10.3H7v-2h10V10.3z M17,6.3H7v-2h10V6.3z" />
</svg>