<?xml version="1.0" encoding="utf-8"?>
<!-- Generator: Adobe Illustrator 25.2.3, SVG Export Plug-In . SVG Version: 6.00 Build 0)  -->
<svg version="1.1" id="Ebene_1" xmlns="http://www.w3.org/2000/svg" xmlns:xlink="http://www.w3.org/1999/xlink" x="0px" y="0px"
	 viewBox="0 0 20 26.6" style="enable-background:new 0 0 20 26.6;" xml:space="preserve">
<path d="M2,4H0v20.6c0,1.1,0.9,2,2,2h14v-2H2V4z"/>
<path d="M18,0H6C4.9,0,4,0.9,4,2v18.6c0,1.1,0.9,2,2,2h12c1.1,0,2-0.9,2-2V2C20,0.9,19.1,0,18,0z M13,18.3H7v-2h6V18.3z M17,14.3H7
	v-2h10V14.3z M17,10.3H7v-2h10V10.3z M17,6.3H7v-2h10V6.3z"/>
</svg>
