<?xml version="1.0" encoding="utf-8"?>
<svg version="1.1" xmlns="http://www.w3.org/2000/svg" xmlns:xlink="http://www.w3.org/1999/xlink" x="0px" y="0px"
	 viewBox="0 0 16 16" style="enable-background:new 0 0 16 16;" xml:space="preserve">
<style type="text/css">
	.st0{fill:#0082C9;}
	.st1{fill:#FFFFFF;}
</style>
<path class="st0" d="M1.5,2C1.2,2,1,2.2,1,2.5v11C1,13.8,1.2,14,1.5,14h13c0.3,0,0.5-0.2,0.5-0.5v-9C15,4.2,14.8,4,14.5,4H8L6,2H1.5
	z"/>
<g>
	<path class="st1" d="M5.2,9.4c0-0.7,0.2-1.3,0.6-1.8l-2,0.3C3.8,8,3.7,8.1,3.8,8.2l1.5,1.4C5.2,9.5,5.2,9.5,5.2,9.4z"/>
	<path class="st1" d="M8,6.7c0.4,0,0.7,0.1,1,0.2L8.1,5c0-0.1-0.2-0.1-0.2,0L7,6.8C7.3,6.7,7.6,6.7,8,6.7z"/>
	<path class="st1" d="M5.7,10.9l-0.3,2c0,0.1,0.1,0.2,0.2,0.1l1.8-0.9C6.6,11.9,6,11.5,5.7,10.9z"/>
	<path class="st1" d="M12.1,7.9l-2-0.3c0.4,0.5,0.6,1.1,0.6,1.8c0,0.1,0,0.1,0,0.2l1.4-1.4C12.3,8.1,12.2,8,12.1,7.9z"/>
	<path class="st1" d="M10.3,10.9c-0.4,0.6-1,1-1.6,1.2l1.8,0.9c0.1,0.1,0.2,0,0.2-0.1L10.3,10.9z"/>
	<path class="st1" d="M8.9,10.1c-0.2,0.3-0.5,0.4-0.9,0.4c-0.6,0-1.1-0.5-1.1-1.1c0-0.7,0.5-1.2,1.1-1.2c0.3,0,0.6,0.1,0.8,0.4
		c0,0,0.1,0,0.1,0h0.8c0.1,0,0.2-0.1,0.1-0.2c-0.4-0.7-1.2-1.2-2-1.1C6.8,7.4,6,8.2,5.9,9.3c-0.1,1.2,0.9,2.2,2.1,2.2
		c0.8,0,1.6-0.5,1.9-1.2c0.1-0.1,0-0.2-0.2-0.2H9C9,10.1,8.9,10.1,8.9,10.1z"/>
</g>
</svg>
