<svg xmlns="http://www.w3.org/2000/svg" xmlns:xlink="http://www.w3.org/1999/xlink" version="1.1" x="0px" y="0px" viewBox="0 0 52 65" enable-background="new 0 0 52 52" xml:space="preserve"><g><g><path d="M38.5292358,10.5736084v6.2084961c0,0.3544922,0.4042969,0.6533203,0.8818359,0.6533203h6.9130249    c-0.0702515-0.0778809-0.1342163-0.1606445-0.2141113-0.2304688l-7.3699951-6.4799805    C38.6745605,10.6680908,38.5994263,10.6242676,38.5292358,10.5736084z"/></g><g><path d="M36.5292358,7.9949951h1.8187256h0.1812744v0.128418l1.15625,0.8188477    c0.140625,0.09375,0.2558594,0.1767578,0.3632813,0.2705078l1.0512085,0.9243164V5.0050049c0-1.6499023-1.3400269-3-3-3H8    c-1.6600342,0-3,1.3500977-3,3v38c0,1.6600342,1.3399658,3,3,3h2.999939V12.6453857    c0-2.5644531,2.1894531-4.6503906,4.8798828-4.6503906H36.5292358z"/></g><g><path d="M39.4110718,19.4354248c-1.5888672,0-2.8818359-1.1904297-2.8818359-2.6533203V9.9949951h-20.649231    C14.289978,9.9949951,13,11.1849365,13,12.6450195v34.6800537c0,1.4599609,1.289978,2.6499023,2.8800049,2.6499023    l27.3899536,0.0200195c0,0,0,0,0.0100098,0c1.0400391,0,2.0400391-0.3999023,2.75-1.1099854    C46.6499634,48.2650146,47,47.4549561,47,46.6051025V19.4354248H39.4110718z M41,43.0018311H19v-2h22V43.0018311z M41,38.0018311    H19v-2h22V38.0018311z M41,33.0018311H19v-2h22V33.0018311z M41,28.0018311H19v-2h22V28.0018311z"/></g></g><text x="0" y="67" fill="#000000" font-size="5px" font-weight="bold" font-family="'Helvetica Neue', Helvetica, Arial-Unicode, Arial, Sans-serif">Created by DinosoftLab</text><text x="0" y="72" fill="#000000" font-size="5px" font-weight="bold" font-family="'Helvetica Neue', Helvetica, Arial-Unicode, Arial, Sans-serif">from the Noun Project</text></svg>