<svg xmlns:dc="http://purl.org/dc/elements/1.1/" xmlns:cc="http://creativecommons.org/ns#" xmlns:rdf="http://www.w3.org/1999/02/22-rdf-syntax-ns#" xmlns:svg="http://www.w3.org/2000/svg" xmlns="http://www.w3.org/2000/svg" xmlns:sodipodi="http://sodipodi.sourceforge.net/DTD/sodipodi-0.dtd" xmlns:inkscape="http://www.inkscape.org/namespaces/inkscape" version="1.1" x="0px" y="0px" viewBox="0 0 100 125"><g transform="translate(0,-952.36218)"><path style="font-size:medium;font-style:normal;font-variant:normal;font-weight:normal;font-stretch:normal;text-indent:0;text-align:start;text-decoration:none;line-height:normal;letter-spacing:normal;word-spacing:normal;text-transform:none;direction:ltr;block-progression:tb;writing-mode:lr-tb;text-anchor:start;baseline-shift:baseline;opacity:1;color:#000000;fill:#000000;fill-opacity:1;stroke:none;stroke-width:6;marker:none;visibility:visible;display:inline;overflow:visible;enable-background:accumulate;font-family:Sans;-inkscape-font-specification:Sans" d="M 18.6875 5 A 3.0003 3.0003 0 0 0 16 8 L 16 92 A 3.0003 3.0003 0 0 0 19 95 L 81 95 A 3.0003 3.0003 0 0 0 84 92 L 84 24 A 3.0003 3.0003 0 0 0 83.125 21.875 L 67.125 5.875 A 3.0003 3.0003 0 0 0 65 5 L 19 5 A 3.0003 3.0003 0 0 0 18.6875 5 z M 22 11 L 60 11 L 60 26 A 3.0003 3.0003 0 0 0 63 29 L 78 29 L 78 89 L 22 89 L 22 11 z M 66 13.21875 L 75.78125 23 L 66 23 L 66 13.21875 z M 27.6875 28 A 3.0040663 3.0040663 0 1 0 28 34 L 50 34 A 3.0003 3.0003 0 1 0 50 28 L 28 28 A 3.0003 3.0003 0 0 0 27.6875 28 z M 27.6875 39 A 3.0040663 3.0040663 0 1 0 28 45 L 72 45 A 3.0003 3.0003 0 1 0 72 39 L 28 39 A 3.0003 3.0003 0 0 0 27.6875 39 z M 27.6875 50 A 3.0040663 3.0040663 0 1 0 28 56 L 72 56 A 3.0003 3.0003 0 1 0 72 50 L 28 50 A 3.0003 3.0003 0 0 0 27.6875 50 z M 27.6875 61 A 3.0040663 3.0040663 0 1 0 28 67 L 72 67 A 3.0003 3.0003 0 1 0 72 61 L 28 61 A 3.0003 3.0003 0 0 0 27.6875 61 z M 27.6875 72 A 3.0040663 3.0040663 0 1 0 28 78 L 72 78 A 3.0003 3.0003 0 1 0 72 72 L 28 72 A 3.0003 3.0003 0 0 0 27.6875 72 z " transform="translate(0,952.36218)"/></g><text x="0" y="115" fill="#000000" font-size="5px" font-weight="bold" font-family="'Helvetica Neue', Helvetica, Arial-Unicode, Arial, Sans-serif">Created by creative outlet</text><text x="0" y="120" fill="#000000" font-size="5px" font-weight="bold" font-family="'Helvetica Neue', Helvetica, Arial-Unicode, Arial, Sans-serif">from the Noun Project</text></svg>