<svg xmlns:dc="http://purl.org/dc/elements/1.1/" xmlns:cc="http://creativecommons.org/ns#" xmlns:rdf="http://www.w3.org/1999/02/22-rdf-syntax-ns#" xmlns:svg="http://www.w3.org/2000/svg" xmlns="http://www.w3.org/2000/svg" xmlns:sodipodi="http://sodipodi.sourceforge.net/DTD/sodipodi-0.dtd" xmlns:inkscape="http://www.inkscape.org/namespaces/inkscape" version="1.1" x="0px" y="0px" viewBox="0 0 100 125"><g transform="translate(0,-952.36218)"><path style="font-size:medium;font-style:normal;font-variant:normal;font-weight:normal;font-stretch:normal;text-indent:0;text-align:start;text-decoration:none;line-height:normal;letter-spacing:normal;word-spacing:normal;text-transform:none;direction:ltr;block-progression:tb;writing-mode:lr-tb;text-anchor:start;baseline-shift:baseline;opacity:1;color:#000000;fill:#000000;fill-opacity:1;stroke:none;stroke-width:6;marker:none;visibility:visible;display:inline;overflow:visible;enable-background:accumulate;font-family:Sans;-inkscape-font-specification:Sans" d="M 26.6875 5 A 3.0003 3.0003 0 0 0 24 8 L 24 15 L 18 15 C 17.895928 14.995 17.791572 14.995 17.6875 15 C 16.223659 15.15343 14.992128 16.52816 15 18 L 15 92 C 15.000157 93.5708 16.429247 94.9998 18 95 L 72 95 C 73.570753 94.9998 74.999843 93.5708 75 92 L 75 85 L 81 85 A 3.0003 3.0003 0 0 0 84 82 L 84 22.09375 A 3.0003 3.0003 0 0 0 83.125 19.96875 L 69.1875 5.875 A 3.0003 3.0003 0 0 0 67.0625 5 L 27 5 A 3.0003 3.0003 0 0 0 26.6875 5 z M 30 11 L 62 11 L 62 24 A 3.0003 3.0003 0 0 0 65 27 L 78 27 L 78 79 L 30 79 L 30 11 z M 68 13.1875 L 75.71875 21 L 68 21 L 68 13.1875 z M 21 21 L 24 21 L 24 82 A 3.0003 3.0003 0 0 0 27 85 L 69 85 L 69 89 L 21 89 L 21 21 z M 35.6875 31 A 3.0040663 3.0040663 0 1 0 36 37 L 55 37 A 3.0003 3.0003 0 1 0 55 31 L 36 31 A 3.0003 3.0003 0 0 0 35.6875 31 z M 35.6875 42 A 3.0040663 3.0040663 0 1 0 36 48 L 72 48 A 3.0003 3.0003 0 1 0 72 42 L 36 42 A 3.0003 3.0003 0 0 0 35.6875 42 z M 35.6875 53 A 3.0040663 3.0040663 0 1 0 36 59 L 72 59 A 3.0003 3.0003 0 1 0 72 53 L 36 53 A 3.0003 3.0003 0 0 0 35.6875 53 z M 35.6875 64 A 3.0040663 3.0040663 0 1 0 36 70 L 72 70 A 3.0003 3.0003 0 1 0 72 64 L 36 64 A 3.0003 3.0003 0 0 0 35.6875 64 z " transform="translate(0,952.36218)"/></g><text x="0" y="115" fill="#000000" font-size="5px" font-weight="bold" font-family="'Helvetica Neue', Helvetica, Arial-Unicode, Arial, Sans-serif">Created by creative outlet</text><text x="0" y="120" fill="#000000" font-size="5px" font-weight="bold" font-family="'Helvetica Neue', Helvetica, Arial-Unicode, Arial, Sans-serif">from the Noun Project</text></svg>